<svg width="83" height="55" viewBox="0 0 83 55" fill="none" xmlns="http://www.w3.org/2000/svg">
<path fill-rule="evenodd" clip-rule="evenodd" d="M0 7.73547L41.5822 17.6823L64.9565 7.21741L44.7512 32.4783L0 7.73547Z" fill="#FF2E3A"/>
<path fill-rule="evenodd" clip-rule="evenodd" d="M42.5453 14.4247C41.0628 14.4247 39.6136 14.0012 38.3812 13.2078C37.1488 12.4145 36.1886 11.287 35.6221 9.96797C35.0557 8.64898 34.9085 7.19785 35.1992 5.79828C35.4898 4.39871 36.2053 3.11364 37.255 2.10574C38.3047 1.09783 39.6414 0.412421 41.0959 0.136279C42.5504 -0.139863 44.0574 0.00567866 45.4259 0.554474C46.7945 1.10327 47.9632 2.03064 48.784 3.2192C49.6048 4.40775 50.0408 5.80404 50.0369 7.23131C50.0369 8.17755 49.843 9.1145 49.4663 9.98847C49.0896 10.8625 48.5374 11.6563 47.8415 12.3245C47.1456 12.9927 46.3196 13.5222 45.4108 13.8826C44.502 14.2429 43.5282 14.4272 42.5453 14.4247ZM82.9803 53.58L31.0516 43.4448L3.6087 54.1304L27.917 27.0462L83 53.618L82.9803 53.58Z" fill="white"/>
</svg>
