<svg viewBox="0 0 35 35" fill="none" xmlns="http://www.w3.org/2000/svg">
<circle cx="17.5" cy="17.5" r="17.5" fill="#0024F1"/>
<path fill-rule="evenodd" clip-rule="evenodd" d="M7 12.9571L17.5208 15.4738L23.4348 12.826L18.3226 19.2174L7 12.9571Z" fill="#FF2E3A"/>
<path fill-rule="evenodd" clip-rule="evenodd" d="M17.7645 14.6496C17.3894 14.6496 17.0227 14.5425 16.7109 14.3417C16.3991 14.141 16.1562 13.8557 16.0128 13.522C15.8695 13.1883 15.8323 12.8211 15.9058 12.467C15.9794 12.1129 16.1604 11.7878 16.426 11.5328C16.6916 11.2778 17.0298 11.1043 17.3978 11.0345C17.7658 10.9646 18.1471 11.0014 18.4933 11.1403C18.8396 11.2791 19.1353 11.5138 19.3429 11.8145C19.5506 12.1152 19.6609 12.4685 19.66 12.8296C19.66 13.069 19.6109 13.3061 19.5156 13.5272C19.4203 13.7483 19.2806 13.9492 19.1045 14.1182C18.9284 14.2873 18.7194 14.4213 18.4895 14.5125C18.2595 14.6036 18.0132 14.6502 17.7645 14.6496ZM27.995 24.5564L14.8564 21.9921L7.91306 24.6957L14.0633 17.843L28 24.566L27.995 24.5564Z" fill="white"/>
</svg>
