<svg viewBox="0 0 35 14" fill="none" xmlns="http://www.w3.org/2000/svg">
<path fill-rule="evenodd" clip-rule="evenodd" d="M35 7C35 10.866 31.866 14 28 14C24.134 14 21 10.866 21 7C21 3.13401 24.134 0 28 0C31.866 0 35 3.13401 35 7ZM4 7C4 8.10457 3.10457 9 2 9C0.895431 9 0 8.10457 0 7C0 5.89543 0.895431 5 2 5C3.10457 5 4 5.89543 4 7ZM13 11C15.2091 11 17 9.20914 17 7C17 4.79086 15.2091 3 13 3C10.7909 3 9 4.79086 9 7C9 9.20914 10.7909 11 13 11Z" fill="url(#paint0_linear_58_196)"/>
<defs>
<linearGradient id="paint0_linear_58_196" x1="35" y1="4.5" x2="1.5" y2="7" gradientUnits="userSpaceOnUse">
<stop stop-color="#656CDD" stop-opacity="0.51"/>
<stop offset="1" stop-color="#A7ACFF" stop-opacity="0.17"/>
</linearGradient>
</defs>
</svg>
