<svg id="svg-cash" viewBox="0 0 30 30" fill="currentColor" xmlns="http://www.w3.org/2000/svg">
<path d="M4 15C4 14.7654 4.04228 14.5354 4.12332 14.3117C4.67083 14.8734 5.37453 15.3205 6.06804 15.6525C7.72995 16.448 9.72361 16.8257 11.6064 16.9142C11.8027 17.6717 12.1157 18.3857 12.5258 19.0358L12.4939 19.0358C7.80282 19.0358 4 17.2289 4 15ZM11.4352 16.04C11.3913 15.713 11.3682 15.38 11.3682 15.0422C11.3682 12.1178 13.0668 9.54424 15.5816 8.27501C14.6246 8.09748 13.5832 8 12.4939 8C7.80282 8 4 9.80693 4 12.0358C4 14.0944 7.24393 15.7924 11.4352 16.04ZM19.1312 8.30032C15.3377 8.30032 12.2625 11.3188 12.2625 15.0422C12.2625 18.7656 15.3377 21.784 19.1312 21.784C22.9248 21.784 26 18.7656 26 15.0422C26 11.3188 22.9247 8.30032 19.1312 8.30032ZM13.1494 19.8882C12.931 19.8957 12.7124 19.8995 12.4939 19.8995C10.37 19.8995 8.01302 19.541 6.09305 18.6287C5.39111 18.2951 4.67719 17.8441 4.12332 17.2759C4.04228 17.4996 4 17.7295 4 17.9642C4 20.1931 7.80282 22 12.4938 22C13.5376 22 14.5373 21.9104 15.461 21.7467C14.5707 21.2776 13.7866 20.6436 13.1494 19.8882Z"/>
</svg>
