<svg id="svg-crown" viewBox="0 0 30 30" fill="currentColor" xmlns="http://www.w3.org/2000/svg">
<path d="M25.9761 13.1846L23.8986 22.3348C23.8574 22.5262 23.7505 22.6974 23.5964 22.8187C23.4423 22.9401 23.2505 23.0041 23.0541 22.9998H6.87376C6.67737 23.0041 6.48561 22.9401 6.33148 22.8187C6.17734 22.6974 6.07047 22.5262 6.02927 22.3348L4.01939 13.1846C3.98557 13.03 3.99615 12.869 4.04992 12.7201C4.10369 12.5712 4.19848 12.4404 4.32341 12.3428C4.44868 12.2448 4.59919 12.1841 4.75758 12.1677C4.91597 12.1513 5.07578 12.1799 5.21856 12.2502L10.1504 14.6324L14.2377 7.42674C14.3113 7.29719 14.4181 7.18944 14.5472 7.11447C14.6763 7.0395 14.823 7 14.9724 7C15.1218 7 15.2685 7.0395 15.3976 7.11447C15.5266 7.18944 15.6334 7.29719 15.7071 7.42674L19.7944 14.6409L24.76 12.2418C24.9038 12.1658 25.0666 12.1328 25.2287 12.1469C25.3909 12.161 25.5455 12.2214 25.674 12.321C25.8025 12.4207 25.8993 12.5552 25.9529 12.7083C26.0065 12.8615 26.0145 13.0269 25.9761 13.1846Z"/>
</svg>
