<svg id="svg-home" viewBox="0 0 30 30" fill="currentColor" xmlns="http://www.w3.org/2000/svg">
<path d="M27.3016 13.3087C27.301 13.3082 27.3004 13.3076 27.2998 13.307L16.6928 2.70142C16.2407 2.24915 15.6396 2 15.0002 2C14.3608 2 13.7597 2.24895 13.3073 2.70122L2.70588 13.3014C2.70231 13.305 2.69874 13.3087 2.69517 13.3123C1.76673 14.246 1.76831 15.7609 2.69973 16.6922C3.12526 17.1179 3.68729 17.3645 4.28819 17.3903C4.31259 17.3927 4.33719 17.3939 4.36199 17.3939H4.78475V25.1989C4.78475 26.7434 6.04152 28 7.58653 28H11.7363C12.1569 28 12.4981 27.659 12.4981 27.2383V21.1191C12.4981 20.4144 13.0715 19.8411 13.7763 19.8411H16.224C16.9289 19.8411 17.5022 20.4144 17.5022 21.1191V27.2383C17.5022 27.659 17.8432 28 18.264 28H22.4138C23.9588 28 25.2156 26.7434 25.2156 25.1989V17.3939H25.6076C26.2468 17.3939 26.8479 17.1449 27.3004 16.6926C28.2328 15.7597 28.2332 14.2422 27.3016 13.3087Z"/>
</svg>
