<svg id="svg-partners" viewBox="0 0 30 30" fill="currentColor" xmlns="http://www.w3.org/2000/svg">
<path d="M24.4012 13.0158L21.0318 7.27438C20.8773 7.01116 20.5394 6.92189 20.2751 7.07451L18.2558 8.24037L16.4369 7.57133C16.3699 7.54671 16.3021 7.52605 16.2338 7.50868C15.7217 7.3785 15.1789 7.45155 14.7157 7.719L11.709 9.45491C11.0449 9.83832 10.8174 10.6875 11.2008 11.3516C11.5842 12.0157 12.4334 12.2433 13.0975 11.8599L16.3968 9.95495C16.7405 9.75653 17.1639 9.75653 17.5076 9.95495C17.5076 9.95495 24.1549 13.794 24.1762 13.8072L24.2752 13.7257C24.486 13.5522 24.5394 13.2512 24.4012 13.0158Z"/>
<path d="M23.5565 14.73L16.9521 10.917L13.6528 12.8219C13.2677 13.0442 12.8403 13.1578 12.4072 13.1578C12.1901 13.1578 11.9716 13.1292 11.7563 13.0716C11.1115 12.8988 10.5725 12.4852 10.2387 11.907C9.90491 11.3289 9.81627 10.6554 9.98907 10.0105C10.1317 9.47817 10.4388 9.01834 10.8668 8.68618L9.50502 7.89996C9.23351 7.74319 8.88609 7.84212 8.73787 8.11841L5.58607 13.9946C5.44429 14.2589 5.53801 14.5881 5.79782 14.7381L6.08652 14.9047L6.59322 14.0271C7.01359 13.2989 7.79732 12.8466 8.63857 12.8466C9.05134 12.8466 9.45907 12.956 9.81764 13.1631C10.0239 13.2822 10.2079 13.4289 10.3659 13.5983C10.6213 13.505 10.894 13.4549 11.1733 13.4549C11.5861 13.4549 11.9938 13.5643 12.3524 13.7714C12.8984 14.0866 13.2889 14.5956 13.4521 15.2047C13.4701 15.2716 13.4845 15.3389 13.4965 15.4064C13.7236 15.4589 13.943 15.5449 14.1465 15.6624C14.6925 15.9776 15.0831 16.4866 15.2463 17.0956C15.2643 17.1626 15.2787 17.2299 15.2907 17.2974C15.5178 17.3499 15.7371 17.4358 15.9407 17.5533C17.0678 18.2041 17.4554 19.6506 16.8047 20.7777L16.1128 21.9761L17.5959 22.8324C18.1936 23.1775 18.9578 22.9727 19.3029 22.375C19.648 21.7773 19.4432 21.013 18.8455 20.6679L19.8075 21.2233C20.4052 21.5684 21.1695 21.3636 21.5146 20.766C21.8596 20.1683 21.6549 19.404 21.0572 19.0589L21.6985 19.4292C22.2962 19.7742 23.0605 19.5694 23.4055 18.9717C23.7506 18.374 23.5458 17.6097 22.9481 17.2647L22.3068 16.8944C22.9045 17.2395 23.6688 17.0347 24.0139 16.437C24.3589 15.8393 24.1541 15.0751 23.5565 14.73Z"/>
<path d="M15.3852 18.5154C14.7875 18.1703 14.0233 18.3751 13.6782 18.9728L14.0484 18.3315C14.3935 17.7338 14.1887 16.9696 13.591 16.6245C12.9934 16.2794 12.2291 16.4842 11.884 17.0819L12.2543 16.4405C12.5994 15.8428 12.3946 15.0786 11.7969 14.7335C11.1992 14.3884 10.4349 14.5932 10.0899 15.1909L9.71959 15.8322C10.0646 15.2345 9.85988 14.4702 9.26216 14.1252C8.66448 13.7801 7.90022 13.9849 7.55513 14.5825L6.21292 16.9073C5.86783 17.505 6.07263 18.2693 6.67031 18.6144C7.26799 18.9594 8.03229 18.7546 8.37734 18.1569C8.03225 18.7546 8.23705 19.5189 8.83473 19.864C9.43241 20.209 10.1967 20.0043 10.5418 19.4065C10.1967 20.0042 10.4015 20.7685 10.9992 21.1136C11.5969 21.4587 12.3611 21.2539 12.7062 20.6561C12.3611 21.2538 12.5659 22.0181 13.1636 22.3632C13.7613 22.7083 14.5256 22.5035 14.8706 21.9057L15.8426 20.2223C16.1877 19.6248 15.9829 18.8605 15.3852 18.5154Z"/>
</svg>
