<svg id="svg-qr" viewBox="0 0 107 108" fill="none" xmlns="http://www.w3.org/2000/svg">
<path d="M29.2365 3.36785H25.9017V1.68392C25.9017 0.7297 26.6242 0 27.5691 0H29.2365V3.36785Z" fill="white"/>
<path d="M32.4742 0H29.1393V3.36785H32.4742V0Z" fill="white"/>
<path d="M35.7117 3.36785H32.3769V0H34.0443C34.9892 0 35.7117 0.7297 35.7117 1.68392V3.36785Z" fill="white"/>
<path d="M42.1872 3.36785H38.8524V1.68392C38.8524 0.7297 39.5749 0 40.5198 0C41.4646 0 42.1872 0.7297 42.1872 1.68392V3.36785Z" fill="white"/>
<path d="M55.138 3.36785H51.8032V1.68392C51.8032 0.7297 52.5257 0 53.4706 0C54.4154 0 55.138 0.7297 55.138 1.68392V3.36785Z" fill="white"/>
<path d="M68.0888 3.36785H66.4214C65.4765 3.36785 64.754 2.63815 64.754 1.68392C64.754 0.7297 65.4765 0 66.4214 0H68.0888V3.36785Z" fill="white"/>
<path d="M69.6591 3.36785H67.9917V0H69.6591C70.604 0 71.3265 0.7297 71.3265 1.68392C71.3265 2.63815 70.604 3.36785 69.6591 3.36785Z" fill="white"/>
<path d="M77.8019 3.36785H76.1345C75.1896 3.36785 74.4671 2.63815 74.4671 1.68392C74.4671 0.7297 75.1896 0 76.1345 0H77.8019V3.36785Z" fill="white"/>
<path d="M81.0397 3.36785H77.7048V0H79.3722C80.3171 0 81.0397 0.7297 81.0397 1.68392V3.36785Z" fill="white"/>
<path d="M29.2365 3.26978H25.9017V6.63762H29.2365V3.26978Z" fill="white"/>
<path d="M34.0443 6.63762C33.0994 6.63762 32.3769 5.90792 32.3769 4.9537V3.26978H35.7117V4.9537C35.7117 5.90792 34.9892 6.63762 34.0443 6.63762Z" fill="white"/>
<path d="M42.1872 3.26978H38.8524V6.63762H42.1872V3.26978Z" fill="white"/>
<path d="M48.6626 6.63762H45.3278V4.9537C45.3278 3.99948 46.0503 3.26978 46.9952 3.26978H48.6626V6.63762Z" fill="white"/>
<path d="M51.9003 3.26978H48.5654V6.63762H51.9003V3.26978Z" fill="white"/>
<path d="M55.138 3.26978H51.8032V6.63762H55.138V3.26978Z" fill="white"/>
<path d="M58.3757 6.63762H55.0409V3.26978H56.7083C57.6532 3.26978 58.3757 3.99948 58.3757 4.9537V6.63762Z" fill="white"/>
<path d="M63.1837 6.63762C64.1046 6.63762 64.8511 5.8837 64.8511 4.9537C64.8511 4.02369 64.1046 3.26978 63.1837 3.26978C62.2628 3.26978 61.5163 4.02369 61.5163 4.9537C61.5163 5.8837 62.2628 6.63762 63.1837 6.63762Z" fill="white"/>
<path d="M81.0397 3.26978H77.7048V6.63762H81.0397V3.26978Z" fill="white"/>
<path d="M29.2365 9.9074H27.5691C26.6242 9.9074 25.9017 9.1777 25.9017 8.22347V6.53955H29.2365V9.9074Z" fill="white"/>
<path d="M30.8068 9.9074H29.1393V6.53955H30.8068C31.7516 6.53955 32.4742 7.26925 32.4742 8.22347C32.4742 9.1777 31.7516 9.9074 30.8068 9.9074Z" fill="white"/>
<path d="M38.9495 9.9074H37.282C36.3372 9.9074 35.6146 9.1777 35.6146 8.22347C35.6146 7.26925 36.3372 6.53955 37.282 6.53955H38.9495V9.9074Z" fill="white"/>
<path d="M42.1872 6.53955H38.8524V9.9074H42.1872V6.53955Z" fill="white"/>
<path d="M45.4249 6.53955H42.09V9.9074H45.4249V6.53955Z" fill="white"/>
<path d="M48.6626 6.53955H45.3278V9.9074H48.6626V6.53955Z" fill="white"/>
<path d="M51.9003 6.53955H48.5654V9.9074H51.9003V6.53955Z" fill="white"/>
<path d="M56.7083 9.9074C55.7634 9.9074 55.0409 9.1777 55.0409 8.22347V6.53955H58.3757V8.22347C58.3757 9.1777 57.6532 9.9074 56.7083 9.9074Z" fill="white"/>
<path d="M68.0888 9.9074H66.4214C65.4765 9.9074 64.754 9.1777 64.754 8.22347C64.754 7.26925 65.4765 6.53955 66.4214 6.53955H68.0888V9.9074Z" fill="white"/>
<path d="M69.6591 9.9074H67.9917V6.53955H69.6591C70.604 6.53955 71.3265 7.26925 71.3265 8.22347C71.3265 9.1777 70.604 9.9074 69.6591 9.9074Z" fill="white"/>
<path d="M77.8019 9.9074H74.4671V8.22347C74.4671 7.26925 75.1896 6.53955 76.1345 6.53955H77.8019V9.9074Z" fill="white"/>
<path d="M79.3722 9.9074H77.7048V6.53955H81.0397V8.22347C81.0397 9.1777 80.3171 9.9074 79.3722 9.9074Z" fill="white"/>
<path d="M35.7117 13.1772H32.3769V11.4932C32.3769 10.539 33.0994 9.80933 34.0443 9.80933C34.9892 9.80933 35.7117 10.539 35.7117 11.4932V13.1772Z" fill="white"/>
<path d="M40.5198 13.1772C39.5749 13.1772 38.8524 12.4475 38.8524 11.4932V9.80933H42.1872V11.4932C42.1872 12.4475 41.4646 13.1772 40.5198 13.1772Z" fill="white"/>
<path d="M51.9003 13.1772H50.2328C49.288 13.1772 48.5654 12.4475 48.5654 11.4932V9.80933H51.9003V13.1772Z" fill="white"/>
<path d="M53.4706 13.1772H51.8032V9.80933H53.4706C54.4154 9.80933 55.138 10.539 55.138 11.4932C55.138 12.4475 54.4154 13.1772 53.4706 13.1772Z" fill="white"/>
<path d="M61.6134 13.1772H58.2786V11.4932C58.2786 10.539 59.0011 9.80933 59.946 9.80933C60.8908 9.80933 61.6134 10.539 61.6134 11.4932V13.1772Z" fill="white"/>
<path d="M74.5642 13.1772H71.2294V11.4932C71.2294 10.539 71.9519 9.80933 72.8968 9.80933H74.5642V13.1772Z" fill="white"/>
<path d="M76.1345 13.1772H74.4671V9.80933H77.8019V11.4932C77.8019 12.4475 77.0794 13.1772 76.1345 13.1772Z" fill="white"/>
<path d="M32.4742 16.4468H29.1393V14.7629C29.1393 13.8087 29.8619 13.079 30.8068 13.079H32.4742V16.4468Z" fill="white"/>
<path d="M35.7117 13.079H32.3769V16.4468H35.7117V13.079Z" fill="white"/>
<path d="M37.282 16.4468H35.6146V13.079H37.282C38.2269 13.079 38.9495 13.8087 38.9495 14.7629C38.9495 15.7171 38.2269 16.4468 37.282 16.4468Z" fill="white"/>
<path d="M61.6134 16.4468H59.946C59.0011 16.4468 58.2786 15.7171 58.2786 14.7629V13.079H61.6134V16.4468Z" fill="white"/>
<path d="M64.8511 16.4468H61.5163V13.079H63.1837C64.1286 13.079 64.8511 13.8087 64.8511 14.7629V16.4468Z" fill="white"/>
<path d="M71.3265 16.4468H67.9917V14.7629C67.9917 13.8087 68.7142 13.079 69.6591 13.079H71.3265V16.4468Z" fill="white"/>
<path d="M72.8968 16.4468H71.2294V13.079H74.5642V14.7629C74.5642 15.7171 73.8417 16.4468 72.8968 16.4468Z" fill="white"/>
<path d="M79.3722 16.4468C80.2931 16.4468 81.0397 15.6929 81.0397 14.7629C81.0397 13.8329 80.2931 13.079 79.3722 13.079C78.4514 13.079 77.7048 13.8329 77.7048 14.7629C77.7048 15.6929 78.4514 16.4468 79.3722 16.4468Z" fill="white"/>
<path d="M29.2365 19.7166H25.9017V18.0327C25.9017 17.0785 26.6242 16.3488 27.5691 16.3488H29.2365V19.7166Z" fill="white"/>
<path d="M30.8068 19.7166H29.1393V16.3488H32.4742V18.0327C32.4742 18.9869 31.7516 19.7166 30.8068 19.7166Z" fill="white"/>
<path d="M42.1872 19.7166H38.8524V18.0327C38.8524 17.0785 39.5749 16.3488 40.5198 16.3488C41.4646 16.3488 42.1872 17.0785 42.1872 18.0327V19.7166Z" fill="white"/>
<path d="M55.138 19.7166H51.8032V18.0327C51.8032 17.0785 52.5257 16.3488 53.4706 16.3488C54.4154 16.3488 55.138 17.0785 55.138 18.0327V19.7166Z" fill="white"/>
<path d="M63.1837 19.7166C62.2388 19.7166 61.5163 18.9869 61.5163 18.0327V16.3488H64.8511V18.0327C64.8511 18.9869 64.1286 19.7166 63.1837 19.7166Z" fill="white"/>
<path d="M69.6591 19.7166C68.7142 19.7166 67.9917 18.9869 67.9917 18.0327V16.3488H71.3265V18.0327C71.3265 18.9869 70.604 19.7166 69.6591 19.7166Z" fill="white"/>
<path d="M29.2365 19.6185H25.9017V22.9864H29.2365V19.6185Z" fill="white"/>
<path d="M35.7117 22.9864H32.3769V21.3025C32.3769 20.3482 33.0994 19.6185 34.0443 19.6185C34.9892 19.6185 35.7117 20.3482 35.7117 21.3025V22.9864Z" fill="white"/>
<path d="M40.5198 22.9864C39.5749 22.9864 38.8524 22.2567 38.8524 21.3025V19.6185H42.1872V21.3025C42.1872 22.2567 41.4646 22.9864 40.5198 22.9864Z" fill="white"/>
<path d="M48.6626 22.9864H45.3278V21.3025C45.3278 20.3482 46.0503 19.6185 46.9952 19.6185C47.94 19.6185 48.6626 20.3482 48.6626 21.3025V22.9864Z" fill="white"/>
<path d="M53.4706 22.9864C52.5257 22.9864 51.8032 22.2567 51.8032 21.3025V19.6185H55.138V21.3025C55.138 22.2567 54.4154 22.9864 53.4706 22.9864Z" fill="white"/>
<path d="M59.946 22.9864C60.8669 22.9864 61.6134 22.2325 61.6134 21.3025C61.6134 20.3724 60.8669 19.6185 59.946 19.6185C59.0251 19.6185 58.2786 20.3724 58.2786 21.3025C58.2786 22.2325 59.0251 22.9864 59.946 22.9864Z" fill="white"/>
<path d="M66.4214 22.9864C67.3423 22.9864 68.0888 22.2325 68.0888 21.3025C68.0888 20.3724 67.3423 19.6185 66.4214 19.6185C65.5005 19.6185 64.754 20.3724 64.754 21.3025C64.754 22.2325 65.5005 22.9864 66.4214 22.9864Z" fill="white"/>
<path d="M74.5642 22.9864H71.2294V21.3025C71.2294 20.3482 71.9519 19.6185 72.8968 19.6185C73.8417 19.6185 74.5642 20.3482 74.5642 21.3025V22.9864Z" fill="white"/>
<path d="M81.0397 22.9864H77.7048V21.3025C77.7048 20.3482 78.4274 19.6185 79.3722 19.6185C80.3171 19.6185 81.0397 20.3482 81.0397 21.3025V22.9864Z" fill="white"/>
<path d="M29.2365 22.8883H25.9017V26.2562H29.2365V22.8883Z" fill="white"/>
<path d="M32.4742 22.8883H29.1393V26.2562H32.4742V22.8883Z" fill="white"/>
<path d="M35.7117 22.8883H32.3769V26.2562H35.7117V22.8883Z" fill="white"/>
<path d="M48.6626 22.8883H45.3278V26.2562H48.6626V22.8883Z" fill="white"/>
<path d="M50.2328 26.2562H48.5654V22.8883H50.2328C51.1777 22.8883 51.9003 23.618 51.9003 24.5722C51.9003 25.5265 51.1777 26.2562 50.2328 26.2562Z" fill="white"/>
<path d="M64.8511 26.2562H61.5163V24.5722C61.5163 23.618 62.2388 22.8883 63.1837 22.8883C64.1286 22.8883 64.8511 23.618 64.8511 24.5722V26.2562Z" fill="white"/>
<path d="M71.3265 26.2562H69.6591C68.7142 26.2562 67.9917 25.5265 67.9917 24.5722C67.9917 23.618 68.7142 22.8883 69.6591 22.8883H71.3265V26.2562Z" fill="white"/>
<path d="M74.5642 22.8883H71.2294V26.2562H74.5642V22.8883Z" fill="white"/>
<path d="M79.3722 26.2562C78.4274 26.2562 77.7048 25.5265 77.7048 24.5722V22.8883H81.0397V24.5722C81.0397 25.5265 80.3171 26.2562 79.3722 26.2562Z" fill="white"/>
<path d="M9.81023 29.5259H6.4754V27.842C6.4754 26.8878 7.19795 26.1581 8.14282 26.1581H9.81023V29.5259Z" fill="white"/>
<path d="M13.048 26.1581H9.71313V29.5259H13.048V26.1581Z" fill="white"/>
<path d="M14.6182 29.5259H12.9508V26.1581H14.6182C15.5631 26.1581 16.2856 26.8878 16.2856 27.842C16.2856 28.7962 15.5631 29.5259 14.6182 29.5259Z" fill="white"/>
<path d="M21.0936 29.5259C22.0145 29.5259 22.761 28.772 22.761 27.842C22.761 26.912 22.0145 26.1581 21.0936 26.1581C20.1727 26.1581 19.4262 26.912 19.4262 27.842C19.4262 28.772 20.1727 29.5259 21.0936 29.5259Z" fill="white"/>
<path d="M27.5691 29.5259C26.6242 29.5259 25.9017 28.7962 25.9017 27.842V26.1581H29.2365V27.842C29.2365 28.7962 28.514 29.5259 27.5691 29.5259Z" fill="white"/>
<path d="M35.7117 26.1581H32.3769V29.5259H35.7117V26.1581Z" fill="white"/>
<path d="M38.9495 29.5259H35.6146V26.1581H37.282C38.2269 26.1581 38.9495 26.8878 38.9495 27.842V29.5259Z" fill="white"/>
<path d="M45.4249 29.5259H42.09V27.842C42.09 26.8878 42.8126 26.1581 43.7574 26.1581H45.4249V29.5259Z" fill="white"/>
<path d="M46.9952 29.5259H45.3278V26.1581H48.6626V27.842C48.6626 28.7962 47.94 29.5259 46.9952 29.5259Z" fill="white"/>
<path d="M58.3757 29.5259H56.7083C55.7634 29.5259 55.0409 28.7962 55.0409 27.842C55.0409 26.8878 55.7634 26.1581 56.7083 26.1581H58.3757V29.5259Z" fill="white"/>
<path d="M61.6134 26.1581H58.2786V29.5259H61.6134V26.1581Z" fill="white"/>
<path d="M64.8511 26.1581H61.5163V29.5259H64.8511V26.1581Z" fill="white"/>
<path d="M72.8968 29.5259C71.9519 29.5259 71.2294 28.7962 71.2294 27.842V26.1581H74.5642V27.842C74.5642 28.7962 73.8417 29.5259 72.8968 29.5259Z" fill="white"/>
<path d="M84.2773 29.5259H80.9425V27.842C80.9425 26.8878 81.6651 26.1581 82.6099 26.1581H84.2773V29.5259Z" fill="white"/>
<path d="M87.5151 26.1581H84.1802V29.5259H87.5151V26.1581Z" fill="white"/>
<path d="M89.0852 29.5259H87.4178V26.1581H89.0852C90.0301 26.1581 90.7526 26.8878 90.7526 27.842C90.7526 28.7962 90.0301 29.5259 89.0852 29.5259Z" fill="white"/>
<path d="M100.466 29.5259H97.1309V27.842C97.1309 26.8878 97.8535 26.1581 98.7983 26.1581H100.466V29.5259Z" fill="white"/>
<path d="M103.703 26.1581H100.369V29.5259H103.703V26.1581Z" fill="white"/>
<path d="M106.941 29.5259H103.606V26.1581H105.274C106.219 26.1581 106.941 26.8878 106.941 27.842V29.5259Z" fill="white"/>
<path d="M9.81023 32.7956H8.14282C7.19795 32.7956 6.4754 32.0659 6.4754 31.1117V29.4277H9.81023V32.7956Z" fill="white"/>
<path d="M13.048 29.4277H9.71313V32.7956H13.048V29.4277Z" fill="white"/>
<path d="M17.856 32.7956C18.7768 32.7956 19.5234 32.0417 19.5234 31.1117C19.5234 30.1817 18.7768 29.4277 17.856 29.4277C16.9351 29.4277 16.1885 30.1817 16.1885 31.1117C16.1885 32.0417 16.9351 32.7956 17.856 32.7956Z" fill="white"/>
<path d="M32.4742 32.7956H29.1393V31.1117C29.1393 30.1574 29.8619 29.4277 30.8068 29.4277H32.4742V32.7956Z" fill="white"/>
<path d="M35.7117 29.4277H32.3769V32.7956H35.7117V29.4277Z" fill="white"/>
<path d="M38.9495 29.4277H35.6146V32.7956H38.9495V29.4277Z" fill="white"/>
<path d="M45.4249 29.4277H42.09V32.7956H45.4249V29.4277Z" fill="white"/>
<path d="M55.138 32.7956H51.8032V31.1117C51.8032 30.1574 52.5257 29.4277 53.4706 29.4277C54.4154 29.4277 55.138 30.1574 55.138 31.1117V32.7956Z" fill="white"/>
<path d="M61.6134 32.7956H59.946C59.0011 32.7956 58.2786 32.0659 58.2786 31.1117V29.4277H61.6134V32.7956Z" fill="white"/>
<path d="M64.8511 29.4277H61.5163V32.7956H64.8511V29.4277Z" fill="white"/>
<path d="M68.0888 32.7956H64.754V29.4277H66.4214C67.3663 29.4277 68.0888 30.1574 68.0888 31.1117V32.7956Z" fill="white"/>
<path d="M77.8019 32.7956H76.1345C75.1896 32.7956 74.4671 32.0659 74.4671 31.1117C74.4671 30.1574 75.1896 29.4277 76.1345 29.4277H77.8019V32.7956Z" fill="white"/>
<path d="M81.0397 29.4277H77.7048V32.7956H81.0397V29.4277Z" fill="white"/>
<path d="M84.2773 29.4277H80.9425V32.7956H84.2773V29.4277Z" fill="white"/>
<path d="M85.8477 32.7956H84.1802V29.4277H87.5151V31.1117C87.5151 32.0659 86.7925 32.7956 85.8477 32.7956Z" fill="white"/>
<path d="M97.228 32.7956H93.8932V31.1117C93.8932 30.1574 94.6157 29.4277 95.5606 29.4277H97.228V32.7956Z" fill="white"/>
<path d="M100.466 29.4277H97.1309V32.7956H100.466V29.4277Z" fill="white"/>
<path d="M103.703 29.4277H100.369V32.7956H103.703V29.4277Z" fill="white"/>
<path d="M105.274 32.7956H103.606V29.4277H106.941V31.1117C106.941 32.0659 106.219 32.7956 105.274 32.7956Z" fill="white"/>
<path d="M4.90515 36.0654C5.82603 36.0654 6.57256 35.3114 6.57256 34.3814C6.57256 33.4514 5.82603 32.6975 4.90515 32.6975C3.98426 32.6975 3.23773 33.4514 3.23773 34.3814C3.23773 35.3114 3.98426 36.0654 4.90515 36.0654Z" fill="white"/>
<path d="M13.048 32.6975H9.71313V36.0654H13.048V32.6975Z" fill="white"/>
<path d="M14.6182 36.0654H12.9508V32.6975H14.6182C15.5631 32.6975 16.2856 33.4272 16.2856 34.3814C16.2856 35.3357 15.5631 36.0654 14.6182 36.0654Z" fill="white"/>
<path d="M22.761 36.0654H21.0936C20.1488 36.0654 19.4262 35.3357 19.4262 34.3814C19.4262 33.4272 20.1488 32.6975 21.0936 32.6975H22.761V36.0654Z" fill="white"/>
<path d="M25.9988 32.6975H22.6639V36.0654H25.9988V32.6975Z" fill="white"/>
<path d="M29.2365 32.6975H25.9017V36.0654H29.2365V32.6975Z" fill="white"/>
<path d="M32.4742 32.6975H29.1393V36.0654H32.4742V32.6975Z" fill="white"/>
<path d="M35.7117 32.6975H32.3769V36.0654H35.7117V32.6975Z" fill="white"/>
<path d="M38.9495 32.6975H35.6146V36.0654H38.9495V32.6975Z" fill="white"/>
<path d="M42.1872 32.6975H38.8524V36.0654H42.1872V32.6975Z" fill="white"/>
<path d="M45.4249 32.6975H42.09V36.0654H45.4249V32.6975Z" fill="white"/>
<path d="M46.9952 36.0654H45.3278V32.6975H46.9952C47.94 32.6975 48.6626 33.4272 48.6626 34.3814C48.6626 35.3357 47.94 36.0654 46.9952 36.0654Z" fill="white"/>
<path d="M53.4706 36.0654C52.5257 36.0654 51.8032 35.3357 51.8032 34.3814V32.6975H55.138V34.3814C55.138 35.3357 54.4154 36.0654 53.4706 36.0654Z" fill="white"/>
<path d="M64.8511 36.0654H63.1837C62.2388 36.0654 61.5163 35.3357 61.5163 34.3814V32.6975H64.8511V36.0654Z" fill="white"/>
<path d="M66.4214 36.0654H64.754V32.6975H68.0888V34.3814C68.0888 35.3357 67.3663 36.0654 66.4214 36.0654Z" fill="white"/>
<path d="M72.8968 36.0654C73.8177 36.0654 74.5642 35.3114 74.5642 34.3814C74.5642 33.4514 73.8177 32.6975 72.8968 32.6975C71.9759 32.6975 71.2294 33.4514 71.2294 34.3814C71.2294 35.3114 71.9759 36.0654 72.8968 36.0654Z" fill="white"/>
<path d="M89.0852 36.0654C90.0061 36.0654 90.7526 35.3114 90.7526 34.3814C90.7526 33.4514 90.0061 32.6975 89.0852 32.6975C88.1643 32.6975 87.4178 33.4514 87.4178 34.3814C87.4178 35.3114 88.1643 36.0654 89.0852 36.0654Z" fill="white"/>
<path d="M97.228 32.6975H93.8932V36.0654H97.228V32.6975Z" fill="white"/>
<path d="M100.466 32.6975H97.1309V36.0654H100.466V32.6975Z" fill="white"/>
<path d="M103.703 32.6975H100.369V36.0654H103.703V32.6975Z" fill="white"/>
<path d="M3.33483 39.3351H0V37.6512C0 36.697 0.722546 35.9673 1.66741 35.9673C2.61228 35.9673 3.33483 36.697 3.33483 37.6512V39.3351Z" fill="white"/>
<path d="M11.3805 39.3351C10.4357 39.3351 9.71313 38.6054 9.71313 37.6512V35.9673H13.048V37.6512C13.048 38.6054 12.3254 39.3351 11.3805 39.3351Z" fill="white"/>
<path d="M17.856 39.3351C18.7768 39.3351 19.5234 38.5812 19.5234 37.6512C19.5234 36.7212 18.7768 35.9673 17.856 35.9673C16.9351 35.9673 16.1885 36.7212 16.1885 37.6512C16.1885 38.5812 16.9351 39.3351 17.856 39.3351Z" fill="white"/>
<path d="M25.9988 35.9673H22.6639V39.3351H25.9988V35.9673Z" fill="white"/>
<path d="M35.7117 35.9673H32.3769V39.3351H35.7117V35.9673Z" fill="white"/>
<path d="M45.4249 35.9673H42.09V39.3351H45.4249V35.9673Z" fill="white"/>
<path d="M51.9003 39.3351H48.5654V37.6512C48.5654 36.697 49.288 35.9673 50.2328 35.9673C51.1777 35.9673 51.9003 36.697 51.9003 37.6512V39.3351Z" fill="white"/>
<path d="M58.3757 39.3351H55.0409V37.6512C55.0409 36.697 55.7634 35.9673 56.7083 35.9673H58.3757V39.3351Z" fill="white"/>
<path d="M61.6134 39.3351H58.2786V35.9673H59.946C60.8908 35.9673 61.6134 36.697 61.6134 37.6512V39.3351Z" fill="white"/>
<path d="M76.1345 39.3351C77.0554 39.3351 77.8019 38.5812 77.8019 37.6512C77.8019 36.7212 77.0554 35.9673 76.1345 35.9673C75.2136 35.9673 74.4671 36.7212 74.4671 37.6512C74.4671 38.5812 75.2136 39.3351 76.1345 39.3351Z" fill="white"/>
<path d="M85.8477 39.3351C86.7685 39.3351 87.5151 38.5812 87.5151 37.6512C87.5151 36.7212 86.7685 35.9673 85.8477 35.9673C84.9268 35.9673 84.1802 36.7212 84.1802 37.6512C84.1802 38.5812 84.9268 39.3351 85.8477 39.3351Z" fill="white"/>
<path d="M97.228 35.9673H93.8932V39.3351H97.228V35.9673Z" fill="white"/>
<path d="M100.466 35.9673H97.1309V39.3351H100.466V35.9673Z" fill="white"/>
<path d="M103.703 35.9673H100.369V39.3351H103.703V35.9673Z" fill="white"/>
<path d="M106.941 39.3351H103.606V35.9673H105.274C106.219 35.9673 106.941 36.697 106.941 37.6512V39.3351Z" fill="white"/>
<path d="M3.33483 39.2371H0V42.6049H3.33483V39.2371Z" fill="white"/>
<path d="M4.90515 42.6049H3.23773V39.2371H4.90515C5.85001 39.2371 6.57256 39.9668 6.57256 40.921C6.57256 41.8752 5.85001 42.6049 4.90515 42.6049Z" fill="white"/>
<path d="M22.761 42.6049H21.0936C20.1488 42.6049 19.4262 41.8752 19.4262 40.921C19.4262 39.9668 20.1488 39.2371 21.0936 39.2371H22.761V42.6049Z" fill="white"/>
<path d="M25.9988 39.2371H22.6639V42.6049H25.9988V39.2371Z" fill="white"/>
<path d="M32.4742 42.6049H29.1393V40.921C29.1393 39.9668 29.8619 39.2371 30.8068 39.2371H32.4742V42.6049Z" fill="white"/>
<path d="M35.7117 39.2371H32.3769V42.6049H35.7117V39.2371Z" fill="white"/>
<path d="M37.282 42.6049H35.6146V39.2371H37.282C38.2269 39.2371 38.9495 39.9668 38.9495 40.921C38.9495 41.8752 38.2269 42.6049 37.282 42.6049Z" fill="white"/>
<path d="M43.7574 42.6049C42.8126 42.6049 42.09 41.8752 42.09 40.921V39.2371H45.4249V40.921C45.4249 41.8752 44.7023 42.6049 43.7574 42.6049Z" fill="white"/>
<path d="M51.9003 42.6049H50.2328C49.288 42.6049 48.5654 41.8752 48.5654 40.921V39.2371H51.9003V42.6049Z" fill="white"/>
<path d="M55.138 39.2371H51.8032V42.6049H55.138V39.2371Z" fill="white"/>
<path d="M58.3757 39.2371H55.0409V42.6049H58.3757V39.2371Z" fill="white"/>
<path d="M61.6134 39.2371H58.2786V42.6049H61.6134V39.2371Z" fill="white"/>
<path d="M71.3265 42.6049H69.6591C68.7142 42.6049 67.9917 41.8752 67.9917 40.921C67.9917 39.9668 68.7142 39.2371 69.6591 39.2371H71.3265V42.6049Z" fill="white"/>
<path d="M72.8968 42.6049H71.2294V39.2371H72.8968C73.8417 39.2371 74.5642 39.9668 74.5642 40.921C74.5642 41.8752 73.8417 42.6049 72.8968 42.6049Z" fill="white"/>
<path d="M82.6099 42.6049C83.5308 42.6049 84.2773 41.851 84.2773 40.921C84.2773 39.991 83.5308 39.2371 82.6099 39.2371C81.689 39.2371 80.9425 39.991 80.9425 40.921C80.9425 41.851 81.689 42.6049 82.6099 42.6049Z" fill="white"/>
<path d="M89.0852 42.6049C90.0061 42.6049 90.7526 41.851 90.7526 40.921C90.7526 39.991 90.0061 39.2371 89.0852 39.2371C88.1643 39.2371 87.4178 39.991 87.4178 40.921C87.4178 41.851 88.1643 42.6049 89.0852 42.6049Z" fill="white"/>
<path d="M97.228 39.2371H93.8932V42.6049H97.228V39.2371Z" fill="white"/>
<path d="M106.941 39.2371H103.606V42.6049H106.941V39.2371Z" fill="white"/>
<path d="M1.66741 45.8747C0.722546 45.8747 0 45.145 0 44.1908V42.5068H3.33483V44.1908C3.33483 45.145 2.61228 45.8747 1.66741 45.8747Z" fill="white"/>
<path d="M8.14282 45.8747C9.06371 45.8747 9.81023 45.1208 9.81023 44.1908C9.81023 43.2608 9.06371 42.5068 8.14282 42.5068C7.22193 42.5068 6.4754 43.2608 6.4754 44.1908C6.4754 45.1208 7.22193 45.8747 8.14282 45.8747Z" fill="white"/>
<path d="M14.6182 45.8747C15.5391 45.8747 16.2856 45.1208 16.2856 44.1908C16.2856 43.2608 15.5391 42.5068 14.6182 42.5068C13.6973 42.5068 12.9508 43.2608 12.9508 44.1908C12.9508 45.1208 13.6973 45.8747 14.6182 45.8747Z" fill="white"/>
<path d="M25.9988 42.5068H22.6639V45.8747H25.9988V42.5068Z" fill="white"/>
<path d="M29.2365 42.5068H25.9017V45.8747H29.2365V42.5068Z" fill="white"/>
<path d="M32.4742 42.5068H29.1393V45.8747H32.4742V42.5068Z" fill="white"/>
<path d="M34.0443 45.8747H32.3769V42.5068H35.7117V44.1908C35.7117 45.145 34.9892 45.8747 34.0443 45.8747Z" fill="white"/>
<path d="M48.6626 45.8747H45.3278V44.1908C45.3278 43.2365 46.0503 42.5068 46.9952 42.5068C47.94 42.5068 48.6626 43.2365 48.6626 44.1908V45.8747Z" fill="white"/>
<path d="M55.138 45.8747H53.4706C52.5257 45.8747 51.8032 45.145 51.8032 44.1908V42.5068H55.138V45.8747Z" fill="white"/>
<path d="M58.3757 42.5068H55.0409V45.8747H58.3757V42.5068Z" fill="white"/>
<path d="M59.946 45.8747H58.2786V42.5068H61.6134V44.1908C61.6134 45.145 60.8908 45.8747 59.946 45.8747Z" fill="white"/>
<path d="M66.4214 45.8747C67.3423 45.8747 68.0888 45.1208 68.0888 44.1908C68.0888 43.2608 67.3423 42.5068 66.4214 42.5068C65.5005 42.5068 64.754 43.2608 64.754 44.1908C64.754 45.1208 65.5005 45.8747 66.4214 45.8747Z" fill="white"/>
<path d="M76.1345 45.8747C77.0554 45.8747 77.8019 45.1208 77.8019 44.1908C77.8019 43.2608 77.0554 42.5068 76.1345 42.5068C75.2136 42.5068 74.4671 43.2608 74.4671 44.1908C74.4671 45.1208 75.2136 45.8747 76.1345 45.8747Z" fill="white"/>
<path d="M85.8477 45.8747C86.7685 45.8747 87.5151 45.1208 87.5151 44.1908C87.5151 43.2608 86.7685 42.5068 85.8477 42.5068C84.9268 42.5068 84.1802 43.2608 84.1802 44.1908C84.1802 45.1208 84.9268 45.8747 85.8477 45.8747Z" fill="white"/>
<path d="M93.9903 45.8747H90.6555V44.1908C90.6555 43.2365 91.3781 42.5068 92.3229 42.5068H93.9903V45.8747Z" fill="white"/>
<path d="M95.5606 45.8747H93.8932V42.5068H97.228V44.1908C97.228 45.145 96.5055 45.8747 95.5606 45.8747Z" fill="white"/>
<path d="M105.274 45.8747C104.329 45.8747 103.606 45.145 103.606 44.1908V42.5068H106.941V44.1908C106.941 45.145 106.219 45.8747 105.274 45.8747Z" fill="white"/>
<path d="M6.57256 49.1445H3.23773V47.4605C3.23773 46.5063 3.96028 45.7766 4.90515 45.7766C5.85001 45.7766 6.57256 46.5063 6.57256 47.4605V49.1445Z" fill="white"/>
<path d="M11.3805 49.1445C12.3014 49.1445 13.048 48.3905 13.048 47.4605C13.048 46.5305 12.3014 45.7766 11.3805 45.7766C10.4597 45.7766 9.71313 46.5305 9.71313 47.4605C9.71313 48.3905 10.4597 49.1445 11.3805 49.1445Z" fill="white"/>
<path d="M19.5234 49.1445H17.856C16.9111 49.1445 16.1885 48.4148 16.1885 47.4605C16.1885 46.5063 16.9111 45.7766 17.856 45.7766H19.5234V49.1445Z" fill="white"/>
<path d="M22.761 45.7766H19.4262V49.1445H22.761V45.7766Z" fill="white"/>
<path d="M25.9988 45.7766H22.6639V49.1445H25.9988V45.7766Z" fill="white"/>
<path d="M32.4742 45.7766H29.1393V49.1445H32.4742V45.7766Z" fill="white"/>
<path d="M38.9495 49.1445H37.282C36.3372 49.1445 35.6146 48.4148 35.6146 47.4605C35.6146 46.5063 36.3372 45.7766 37.282 45.7766H38.9495V49.1445Z" fill="white"/>
<path d="M42.1872 45.7766H38.8524V49.1445H42.1872V45.7766Z" fill="white"/>
<path d="M45.4249 45.7766H42.09V49.1445H45.4249V45.7766Z" fill="white"/>
<path d="M48.6626 45.7766H45.3278V49.1445H48.6626V45.7766Z" fill="white"/>
<path d="M51.9003 49.1445H48.5654V45.7766H50.2328C51.1777 45.7766 51.9003 46.5063 51.9003 47.4605V49.1445Z" fill="white"/>
<path d="M63.1837 49.1445C64.1046 49.1445 64.8511 48.3905 64.8511 47.4605C64.8511 46.5305 64.1046 45.7766 63.1837 45.7766C62.2628 45.7766 61.5163 46.5305 61.5163 47.4605C61.5163 48.3905 62.2628 49.1445 63.1837 49.1445Z" fill="white"/>
<path d="M74.5642 49.1445H71.2294V47.4605C71.2294 46.5063 71.9519 45.7766 72.8968 45.7766C73.8417 45.7766 74.5642 46.5063 74.5642 47.4605V49.1445Z" fill="white"/>
<path d="M79.3722 49.1445C80.2931 49.1445 81.0397 48.3905 81.0397 47.4605C81.0397 46.5305 80.2931 45.7766 79.3722 45.7766C78.4514 45.7766 77.7048 46.5305 77.7048 47.4605C77.7048 48.3905 78.4514 49.1445 79.3722 49.1445Z" fill="white"/>
<path d="M90.7526 49.1445H89.0852C88.1403 49.1445 87.4178 48.4148 87.4178 47.4605C87.4178 46.5063 88.1403 45.7766 89.0852 45.7766H90.7526V49.1445Z" fill="white"/>
<path d="M93.9903 45.7766H90.6555V49.1445H93.9903V45.7766Z" fill="white"/>
<path d="M102.036 49.1445C102.957 49.1445 103.703 48.3905 103.703 47.4605C103.703 46.5305 102.957 45.7766 102.036 45.7766C101.115 45.7766 100.369 46.5305 100.369 47.4605C100.369 48.3905 101.115 49.1445 102.036 49.1445Z" fill="white"/>
<path d="M6.57256 49.0464H3.23773V52.4142H6.57256V49.0464Z" fill="white"/>
<path d="M9.81023 52.4142H6.4754V49.0464H8.14282C9.08769 49.0464 9.81023 49.7761 9.81023 50.7303V52.4142Z" fill="white"/>
<path d="M25.9988 49.0464H22.6639V52.4142H25.9988V49.0464Z" fill="white"/>
<path d="M29.2365 49.0464H25.9017V52.4142H29.2365V49.0464Z" fill="white"/>
<path d="M32.4742 49.0464H29.1393V52.4142H32.4742V49.0464Z" fill="white"/>
<path d="M34.0443 52.4142H32.3769V49.0464H34.0443C34.9892 49.0464 35.7117 49.7761 35.7117 50.7303C35.7117 51.6845 34.9892 52.4142 34.0443 52.4142Z" fill="white"/>
<path d="M45.4249 49.0464H42.09V52.4142H45.4249V49.0464Z" fill="white"/>
<path d="M48.6626 49.0464H45.3278V52.4142H48.6626V49.0464Z" fill="white"/>
<path d="M51.9003 49.0464H48.5654V52.4142H51.9003V49.0464Z" fill="white"/>
<path d="M61.6134 52.4142H58.2786V50.7303C58.2786 49.7761 59.0011 49.0464 59.946 49.0464C60.8908 49.0464 61.6134 49.7761 61.6134 50.7303V52.4142Z" fill="white"/>
<path d="M71.3265 52.4142H69.6591C68.7142 52.4142 67.9917 51.6845 67.9917 50.7303C67.9917 49.7761 68.7142 49.0464 69.6591 49.0464H71.3265V52.4142Z" fill="white"/>
<path d="M74.5642 49.0464H71.2294V52.4142H74.5642V49.0464Z" fill="white"/>
<path d="M77.8019 52.4142H74.4671V49.0464H76.1345C77.0794 49.0464 77.8019 49.7761 77.8019 50.7303V52.4142Z" fill="white"/>
<path d="M85.8477 52.4142C86.7685 52.4142 87.5151 51.6603 87.5151 50.7303C87.5151 49.8003 86.7685 49.0464 85.8477 49.0464C84.9268 49.0464 84.1802 49.8003 84.1802 50.7303C84.1802 51.6603 84.9268 52.4142 85.8477 52.4142Z" fill="white"/>
<path d="M93.9903 49.0464H90.6555V52.4142H93.9903V49.0464Z" fill="white"/>
<path d="M95.5606 52.4142H93.8932V49.0464H95.5606C96.5055 49.0464 97.228 49.7761 97.228 50.7303C97.228 51.6845 96.5055 52.4142 95.5606 52.4142Z" fill="white"/>
<path d="M106.941 52.4142H103.606V50.7303C103.606 49.7761 104.329 49.0464 105.274 49.0464C106.219 49.0464 106.941 49.7761 106.941 50.7303V52.4142Z" fill="white"/>
<path d="M3.33483 55.6839H1.66741C0.722546 55.6839 0 54.9542 0 54C0 53.0457 0.722546 52.316 1.66741 52.316H3.33483V55.6839Z" fill="white"/>
<path d="M6.57256 52.316H3.23773V55.6839H6.57256V52.316Z" fill="white"/>
<path d="M9.81023 52.316H6.4754V55.6839H9.81023V52.316Z" fill="white"/>
<path d="M16.2856 55.6839H12.9508V54C12.9508 53.0457 13.6734 52.316 14.6182 52.316H16.2856V55.6839Z" fill="white"/>
<path d="M19.5234 52.316H16.1885V55.6839H19.5234V52.316Z" fill="white"/>
<path d="M22.761 52.316H19.4262V55.6839H22.761V52.316Z" fill="white"/>
<path d="M24.3314 55.6839H22.6639V52.316H25.9988V54C25.9988 54.9542 25.2762 55.6839 24.3314 55.6839Z" fill="white"/>
<path d="M30.8068 55.6839C29.8619 55.6839 29.1393 54.9542 29.1393 54V52.316H32.4742V54C32.4742 54.9542 31.7516 55.6839 30.8068 55.6839Z" fill="white"/>
<path d="M38.9495 55.6839H37.282C36.3372 55.6839 35.6146 54.9542 35.6146 54C35.6146 53.0457 36.3372 52.316 37.282 52.316H38.9495V55.6839Z" fill="white"/>
<path d="M42.1872 52.316H38.8524V55.6839H42.1872V52.316Z" fill="white"/>
<path d="M45.4249 52.316H42.09V55.6839H45.4249V52.316Z" fill="white"/>
<path d="M48.6626 52.316H45.3278V55.6839H48.6626V52.316Z" fill="white"/>
<path d="M51.9003 52.316H48.5654V55.6839H51.9003V52.316Z" fill="white"/>
<path d="M55.138 52.316H51.8032V55.6839H55.138V52.316Z" fill="white"/>
<path d="M58.3757 52.316H55.0409V55.6839H58.3757V52.316Z" fill="white"/>
<path d="M59.946 55.6839H58.2786V52.316H61.6134V54C61.6134 54.9542 60.8908 55.6839 59.946 55.6839Z" fill="white"/>
<path d="M77.8019 52.316H74.4671V55.6839H77.8019V52.316Z" fill="white"/>
<path d="M92.3229 55.6839C91.3781 55.6839 90.6555 54.9542 90.6555 54V52.316H93.9903V54C93.9903 54.9542 93.2678 55.6839 92.3229 55.6839Z" fill="white"/>
<path d="M98.7983 55.6839C99.7192 55.6839 100.466 54.93 100.466 54C100.466 53.07 99.7192 52.316 98.7983 52.316C97.8774 52.316 97.1309 53.07 97.1309 54C97.1309 54.93 97.8774 55.6839 98.7983 55.6839Z" fill="white"/>
<path d="M105.274 55.6839C104.329 55.6839 103.606 54.9542 103.606 54V52.316H106.941V54C106.941 54.9542 106.219 55.6839 105.274 55.6839Z" fill="white"/>
<path d="M6.57256 55.5858H3.23773V58.9537H6.57256V55.5858Z" fill="white"/>
<path d="M9.81023 55.5858H6.4754V58.9537H9.81023V55.5858Z" fill="white"/>
<path d="M13.048 55.5858H9.71313V58.9537H13.048V55.5858Z" fill="white"/>
<path d="M16.2856 55.5858H12.9508V58.9537H16.2856V55.5858Z" fill="white"/>
<path d="M19.5234 55.5858H16.1885V58.9537H19.5234V55.5858Z" fill="white"/>
<path d="M35.7117 58.9537H32.3769V57.2697C32.3769 56.3155 33.0994 55.5858 34.0443 55.5858C34.9892 55.5858 35.7117 56.3155 35.7117 57.2697V58.9537Z" fill="white"/>
<path d="M40.5198 58.9537C39.5749 58.9537 38.8524 58.224 38.8524 57.2697V55.5858H42.1872V57.2697C42.1872 58.224 41.4646 58.9537 40.5198 58.9537Z" fill="white"/>
<path d="M53.4706 58.9537C52.5257 58.9537 51.8032 58.224 51.8032 57.2697V55.5858H55.138V57.2697C55.138 58.224 54.4154 58.9537 53.4706 58.9537Z" fill="white"/>
<path d="M64.8511 58.9537H61.5163V57.2697C61.5163 56.3155 62.2388 55.5858 63.1837 55.5858H64.8511V58.9537Z" fill="white"/>
<path d="M68.0888 55.5858H64.754V58.9537H68.0888V55.5858Z" fill="white"/>
<path d="M71.3265 58.9537H67.9917V55.5858H69.6591C70.604 55.5858 71.3265 56.3155 71.3265 57.2697V58.9537Z" fill="white"/>
<path d="M77.8019 58.9537H76.1345C75.1896 58.9537 74.4671 58.224 74.4671 57.2697V55.5858H77.8019V58.9537Z" fill="white"/>
<path d="M79.3722 58.9537H77.7048V55.5858H79.3722C80.3171 55.5858 81.0397 56.3155 81.0397 57.2697C81.0397 58.224 80.3171 58.9537 79.3722 58.9537Z" fill="white"/>
<path d="M85.8477 58.9537C86.7685 58.9537 87.5151 58.1997 87.5151 57.2697C87.5151 56.3397 86.7685 55.5858 85.8477 55.5858C84.9268 55.5858 84.1802 56.3397 84.1802 57.2697C84.1802 58.1997 84.9268 58.9537 85.8477 58.9537Z" fill="white"/>
<path d="M4.90515 62.2234C3.96028 62.2234 3.23773 61.4937 3.23773 60.5395V58.8556H6.57256V60.5395C6.57256 61.4937 5.85001 62.2234 4.90515 62.2234Z" fill="white"/>
<path d="M19.5234 58.8556H16.1885V62.2234H19.5234V58.8556Z" fill="white"/>
<path d="M21.0936 62.2234H19.4262V58.8556H21.0936C22.0385 58.8556 22.761 59.5853 22.761 60.5395C22.761 61.4937 22.0385 62.2234 21.0936 62.2234Z" fill="white"/>
<path d="M35.7117 58.8556H32.3769V62.2234H35.7117V58.8556Z" fill="white"/>
<path d="M37.282 62.2234H35.6146V58.8556H37.282C38.2269 58.8556 38.9495 59.5853 38.9495 60.5395C38.9495 61.4937 38.2269 62.2234 37.282 62.2234Z" fill="white"/>
<path d="M61.6134 62.2234H59.946C59.0011 62.2234 58.2786 61.4937 58.2786 60.5395C58.2786 59.5853 59.0011 58.8556 59.946 58.8556H61.6134V62.2234Z" fill="white"/>
<path d="M63.1837 62.2234H61.5163V58.8556H64.8511V60.5395C64.8511 61.4937 64.1286 62.2234 63.1837 62.2234Z" fill="white"/>
<path d="M71.3265 58.8556H67.9917V62.2234H71.3265V58.8556Z" fill="white"/>
<path d="M74.5642 62.2234H71.2294V58.8556H72.8968C73.8417 58.8556 74.5642 59.5853 74.5642 60.5395V62.2234Z" fill="white"/>
<path d="M100.466 62.2234H97.1309V60.5395C97.1309 59.5853 97.8535 58.8556 98.7983 58.8556C99.7432 58.8556 100.466 59.5853 100.466 60.5395V62.2234Z" fill="white"/>
<path d="M1.66741 65.4932C2.5883 65.4932 3.33483 64.7393 3.33483 63.8093C3.33483 62.8793 2.5883 62.1254 1.66741 62.1254C0.746527 62.1254 0 62.8793 0 63.8093C0 64.7393 0.746527 65.4932 1.66741 65.4932Z" fill="white"/>
<path d="M9.81023 65.4932H6.4754V63.8093C6.4754 62.8551 7.19795 62.1254 8.14282 62.1254H9.81023V65.4932Z" fill="white"/>
<path d="M13.048 65.4932H9.71313V62.1254H11.3805C12.3254 62.1254 13.048 62.8551 13.048 63.8093V65.4932Z" fill="white"/>
<path d="M17.856 65.4932C16.9111 65.4932 16.1885 64.7635 16.1885 63.8093V62.1254H19.5234V63.8093C19.5234 64.7635 18.8008 65.4932 17.856 65.4932Z" fill="white"/>
<path d="M24.3314 65.4932C25.2522 65.4932 25.9988 64.7393 25.9988 63.8093C25.9988 62.8793 25.2522 62.1254 24.3314 62.1254C23.4105 62.1254 22.6639 62.8793 22.6639 63.8093C22.6639 64.7393 23.4105 65.4932 24.3314 65.4932Z" fill="white"/>
<path d="M32.4742 65.4932H30.8068C29.8619 65.4932 29.1393 64.7635 29.1393 63.8093C29.1393 62.8551 29.8619 62.1254 30.8068 62.1254H32.4742V65.4932Z" fill="white"/>
<path d="M34.0443 65.4932H32.3769V62.1254H35.7117V63.8093C35.7117 64.7635 34.9892 65.4932 34.0443 65.4932Z" fill="white"/>
<path d="M40.5198 65.4932C41.4407 65.4932 42.1872 64.7393 42.1872 63.8093C42.1872 62.8793 41.4407 62.1254 40.5198 62.1254C39.5989 62.1254 38.8524 62.8793 38.8524 63.8093C38.8524 64.7393 39.5989 65.4932 40.5198 65.4932Z" fill="white"/>
<path d="M48.6626 65.4932H45.3278V63.8093C45.3278 62.8551 46.0503 62.1254 46.9952 62.1254H48.6626V65.4932Z" fill="white"/>
<path d="M51.9003 62.1254H48.5654V65.4932H51.9003V62.1254Z" fill="white"/>
<path d="M55.138 62.1254H51.8032V65.4932H55.138V62.1254Z" fill="white"/>
<path d="M58.3757 65.4932H55.0409V62.1254H56.7083C57.6532 62.1254 58.3757 62.8551 58.3757 63.8093V65.4932Z" fill="white"/>
<path d="M68.0888 65.4932H64.754V63.8093C64.754 62.8551 65.4765 62.1254 66.4214 62.1254H68.0888V65.4932Z" fill="white"/>
<path d="M71.3265 62.1254H67.9917V65.4932H71.3265V62.1254Z" fill="white"/>
<path d="M74.5642 62.1254H71.2294V65.4932H74.5642V62.1254Z" fill="white"/>
<path d="M77.8019 62.1254H74.4671V65.4932H77.8019V62.1254Z" fill="white"/>
<path d="M81.0397 62.1254H77.7048V65.4932H81.0397V62.1254Z" fill="white"/>
<path d="M82.6099 65.4932H80.9425V62.1254H82.6099C83.5548 62.1254 84.2773 62.8551 84.2773 63.8093C84.2773 64.7635 83.5548 65.4932 82.6099 65.4932Z" fill="white"/>
<path d="M97.228 65.4932H93.8932V63.8093C93.8932 62.8551 94.6157 62.1254 95.5606 62.1254H97.228V65.4932Z" fill="white"/>
<path d="M100.466 62.1254H97.1309V65.4932H100.466V62.1254Z" fill="white"/>
<path d="M103.703 62.1254H100.369V65.4932H103.703V62.1254Z" fill="white"/>
<path d="M106.941 65.4932H103.606V62.1254H105.274C106.219 62.1254 106.941 62.8551 106.941 63.8093V65.4932Z" fill="white"/>
<path d="M9.81023 68.763H8.14282C7.19795 68.763 6.4754 68.0333 6.4754 67.0791V65.3951H9.81023V68.763Z" fill="white"/>
<path d="M13.048 65.3951H9.71313V68.763H13.048V65.3951Z" fill="white"/>
<path d="M14.6182 68.763H12.9508V65.3951H14.6182C15.5631 65.3951 16.2856 66.1248 16.2856 67.0791C16.2856 68.0333 15.5631 68.763 14.6182 68.763Z" fill="white"/>
<path d="M21.0936 68.763C22.0145 68.763 22.761 68.0091 22.761 67.0791C22.761 66.1491 22.0145 65.3951 21.0936 65.3951C20.1727 65.3951 19.4262 66.1491 19.4262 67.0791C19.4262 68.0091 20.1727 68.763 21.0936 68.763Z" fill="white"/>
<path d="M37.282 68.763C38.2029 68.763 38.9495 68.0091 38.9495 67.0791C38.9495 66.1491 38.2029 65.3951 37.282 65.3951C36.3612 65.3951 35.6146 66.1491 35.6146 67.0791C35.6146 68.0091 36.3612 68.763 37.282 68.763Z" fill="white"/>
<path d="M46.9952 68.763C46.0503 68.763 45.3278 68.0333 45.3278 67.0791V65.3951H48.6626V67.0791C48.6626 68.0333 47.94 68.763 46.9952 68.763Z" fill="white"/>
<path d="M56.7083 68.763C55.7634 68.763 55.0409 68.0333 55.0409 67.0791V65.3951H58.3757V67.0791C58.3757 68.0333 57.6532 68.763 56.7083 68.763Z" fill="white"/>
<path d="M68.0888 65.3951H64.754V68.763H68.0888V65.3951Z" fill="white"/>
<path d="M79.3722 68.763C78.4274 68.763 77.7048 68.0333 77.7048 67.0791V65.3951H81.0397V67.0791C81.0397 68.0333 80.3171 68.763 79.3722 68.763Z" fill="white"/>
<path d="M93.9903 68.763H92.3229C91.3781 68.763 90.6555 68.0333 90.6555 67.0791C90.6555 66.1248 91.3781 65.3951 92.3229 65.3951H93.9903V68.763Z" fill="white"/>
<path d="M97.228 65.3951H93.8932V68.763H97.228V65.3951Z" fill="white"/>
<path d="M103.703 65.3951H100.369V68.763H103.703V65.3951Z" fill="white"/>
<path d="M106.941 65.3951H103.606V68.763H106.941V65.3951Z" fill="white"/>
<path d="M3.33483 72.0326H0V70.3487C0 69.3945 0.722546 68.6648 1.66741 68.6648C2.61228 68.6648 3.33483 69.3945 3.33483 70.3487V72.0326Z" fill="white"/>
<path d="M25.9988 72.0326H22.6639V70.3487C22.6639 69.3945 23.3865 68.6648 24.3314 68.6648H25.9988V72.0326Z" fill="white"/>
<path d="M29.2365 68.6648H25.9017V72.0326H29.2365V68.6648Z" fill="white"/>
<path d="M32.4742 68.6648H29.1393V72.0326H32.4742V68.6648Z" fill="white"/>
<path d="M35.7117 72.0326H32.3769V68.6648H34.0443C34.9892 68.6648 35.7117 69.3945 35.7117 70.3487V72.0326Z" fill="white"/>
<path d="M51.9003 72.0326H48.5654V70.3487C48.5654 69.3945 49.288 68.6648 50.2328 68.6648C51.1777 68.6648 51.9003 69.3945 51.9003 70.3487V72.0326Z" fill="white"/>
<path d="M61.6134 72.0326H59.946C59.0011 72.0326 58.2786 71.3029 58.2786 70.3487C58.2786 69.3945 59.0011 68.6648 59.946 68.6648H61.6134V72.0326Z" fill="white"/>
<path d="M64.8511 68.6648H61.5163V72.0326H64.8511V68.6648Z" fill="white"/>
<path d="M68.0888 68.6648H64.754V72.0326H68.0888V68.6648Z" fill="white"/>
<path d="M71.3265 72.0326H67.9917V68.6648H69.6591C70.604 68.6648 71.3265 69.3945 71.3265 70.3487V72.0326Z" fill="white"/>
<path d="M82.6099 72.0326C83.5308 72.0326 84.2773 71.2787 84.2773 70.3487C84.2773 69.4187 83.5308 68.6648 82.6099 68.6648C81.689 68.6648 80.9425 69.4187 80.9425 70.3487C80.9425 71.2787 81.689 72.0326 82.6099 72.0326Z" fill="white"/>
<path d="M97.228 68.6648H93.8932V72.0326H97.228V68.6648Z" fill="white"/>
<path d="M100.466 68.6648H97.1309V72.0326H100.466V68.6648Z" fill="white"/>
<path d="M103.703 68.6648H100.369V72.0326H103.703V68.6648Z" fill="white"/>
<path d="M105.274 72.0326H103.606V68.6648H106.941V70.3487C106.941 71.3029 106.219 72.0326 105.274 72.0326Z" fill="white"/>
<path d="M3.33483 71.9346H0V75.3024H3.33483V71.9346Z" fill="white"/>
<path d="M16.2856 75.3024H12.9508V73.6185C12.9508 72.6643 13.6734 71.9346 14.6182 71.9346C15.5631 71.9346 16.2856 72.6643 16.2856 73.6185V75.3024Z" fill="white"/>
<path d="M22.761 75.3024H21.0936C20.1488 75.3024 19.4262 74.5727 19.4262 73.6185C19.4262 72.6643 20.1488 71.9346 21.0936 71.9346H22.761V75.3024Z" fill="white"/>
<path d="M25.9988 71.9346H22.6639V75.3024H25.9988V71.9346Z" fill="white"/>
<path d="M29.2365 71.9346H25.9017V75.3024H29.2365V71.9346Z" fill="white"/>
<path d="M34.0443 75.3024C33.0994 75.3024 32.3769 74.5727 32.3769 73.6185V71.9346H35.7117V73.6185C35.7117 74.5727 34.9892 75.3024 34.0443 75.3024Z" fill="white"/>
<path d="M51.9003 71.9346H48.5654V75.3024H51.9003V71.9346Z" fill="white"/>
<path d="M55.138 71.9346H51.8032V75.3024H55.138V71.9346Z" fill="white"/>
<path d="M58.3757 75.3024H55.0409V71.9346H56.7083C57.6532 71.9346 58.3757 72.6643 58.3757 73.6185V75.3024Z" fill="white"/>
<path d="M64.8511 71.9346H61.5163V75.3024H64.8511V71.9346Z" fill="white"/>
<path d="M68.0888 71.9346H64.754V75.3024H68.0888V71.9346Z" fill="white"/>
<path d="M71.3265 71.9346H67.9917V75.3024H71.3265V71.9346Z" fill="white"/>
<path d="M74.5642 71.9346H71.2294V75.3024H74.5642V71.9346Z" fill="white"/>
<path d="M77.8019 71.9346H74.4671V75.3024H77.8019V71.9346Z" fill="white"/>
<path d="M79.3722 75.3024H77.7048V71.9346H79.3722C80.3171 71.9346 81.0397 72.6643 81.0397 73.6185C81.0397 74.5727 80.3171 75.3024 79.3722 75.3024Z" fill="white"/>
<path d="M93.9903 75.3024H90.6555V73.6185C90.6555 72.6643 91.3781 71.9346 92.3229 71.9346H93.9903V75.3024Z" fill="white"/>
<path d="M97.228 71.9346H93.8932V75.3024H97.228V71.9346Z" fill="white"/>
<path d="M103.703 71.9346H100.369V75.3024H103.703V71.9346Z" fill="white"/>
<path d="M3.33483 75.2043H0V78.5722H3.33483V75.2043Z" fill="white"/>
<path d="M9.81023 78.5722H6.4754V76.8883C6.4754 75.934 7.19795 75.2043 8.14282 75.2043C9.08769 75.2043 9.81023 75.934 9.81023 76.8883V78.5722Z" fill="white"/>
<path d="M16.2856 75.2043H12.9508V78.5722H16.2856V75.2043Z" fill="white"/>
<path d="M29.2365 75.2043H25.9017V78.5722H29.2365V75.2043Z" fill="white"/>
<path d="M30.8068 78.5722H29.1393V75.2043H30.8068C31.7516 75.2043 32.4742 75.934 32.4742 76.8883C32.4742 77.8425 31.7516 78.5722 30.8068 78.5722Z" fill="white"/>
<path d="M51.9003 75.2043H48.5654V78.5722H51.9003V75.2043Z" fill="white"/>
<path d="M55.138 75.2043H51.8032V78.5722H55.138V75.2043Z" fill="white"/>
<path d="M58.3757 75.2043H55.0409V78.5722H58.3757V75.2043Z" fill="white"/>
<path d="M64.8511 75.2043H61.5163V78.5722H64.8511V75.2043Z" fill="white"/>
<path d="M69.6591 78.5722C68.7142 78.5722 67.9917 77.8425 67.9917 76.8883V75.2043H71.3265V76.8883C71.3265 77.8425 70.604 78.5722 69.6591 78.5722Z" fill="white"/>
<path d="M77.8019 75.2043H74.4671V78.5722H77.8019V75.2043Z" fill="white"/>
<path d="M93.9903 75.2043H90.6555V78.5722H93.9903V75.2043Z" fill="white"/>
<path d="M97.228 75.2043H93.8932V78.5722H97.228V75.2043Z" fill="white"/>
<path d="M100.466 75.2043H97.1309V78.5722H100.466V75.2043Z" fill="white"/>
<path d="M103.703 75.2043H100.369V78.5722H103.703V75.2043Z" fill="white"/>
<path d="M106.941 78.5722H103.606V75.2043H105.274C106.219 75.2043 106.941 75.934 106.941 76.8883V78.5722Z" fill="white"/>
<path d="M1.66741 81.842C0.722546 81.842 0 81.1123 0 80.158V78.4741H3.33483V80.158C3.33483 81.1123 2.61228 81.842 1.66741 81.842Z" fill="white"/>
<path d="M8.14282 81.842C7.19795 81.842 6.4754 81.1123 6.4754 80.158V78.4741H9.81023V80.158C9.81023 81.1123 9.08769 81.842 8.14282 81.842Z" fill="white"/>
<path d="M16.2856 81.842H14.6182C13.6734 81.842 12.9508 81.1123 12.9508 80.158V78.4741H16.2856V81.842Z" fill="white"/>
<path d="M19.5234 78.4741H16.1885V81.842H19.5234V78.4741Z" fill="white"/>
<path d="M21.0936 81.842H19.4262V78.4741H21.0936C22.0385 78.4741 22.761 79.2038 22.761 80.158C22.761 81.1123 22.0385 81.842 21.0936 81.842Z" fill="white"/>
<path d="M29.2365 78.4741H25.9017V81.842H29.2365V78.4741Z" fill="white"/>
<path d="M35.7117 81.842H32.3769V80.158C32.3769 79.2038 33.0994 78.4741 34.0443 78.4741H35.7117V81.842Z" fill="white"/>
<path d="M38.9495 78.4741H35.6146V81.842H38.9495V78.4741Z" fill="white"/>
<path d="M42.1872 81.842H38.8524V78.4741H40.5198C41.4646 78.4741 42.1872 79.2038 42.1872 80.158V81.842Z" fill="white"/>
<path d="M48.6626 81.842H45.3278V80.158C45.3278 79.2038 46.0503 78.4741 46.9952 78.4741H48.6626V81.842Z" fill="white"/>
<path d="M50.2328 81.842H48.5654V78.4741H51.9003V80.158C51.9003 81.1123 51.1777 81.842 50.2328 81.842Z" fill="white"/>
<path d="M58.3757 78.4741H55.0409V81.842H58.3757V78.4741Z" fill="white"/>
<path d="M63.1837 81.842C62.2388 81.842 61.5163 81.1123 61.5163 80.158V78.4741H64.8511V80.158C64.8511 81.1123 64.1286 81.842 63.1837 81.842Z" fill="white"/>
<path d="M74.5642 81.842H72.8968C71.9519 81.842 71.2294 81.1123 71.2294 80.158C71.2294 79.2038 71.9519 78.4741 72.8968 78.4741H74.5642V81.842Z" fill="white"/>
<path d="M77.8019 78.4741H74.4671V81.842H77.8019V78.4741Z" fill="white"/>
<path d="M81.0397 78.4741H77.7048V81.842H81.0397V78.4741Z" fill="white"/>
<path d="M84.2773 78.4741H80.9425V81.842H84.2773V78.4741Z" fill="white"/>
<path d="M87.5151 78.4741H84.1802V81.842H87.5151V78.4741Z" fill="white"/>
<path d="M90.7526 78.4741H87.4178V81.842H90.7526V78.4741Z" fill="white"/>
<path d="M93.9903 78.4741H90.6555V81.842H93.9903V78.4741Z" fill="white"/>
<path d="M103.703 81.842H102.036C101.091 81.842 100.369 81.1123 100.369 80.158V78.4741H103.703V81.842Z" fill="white"/>
<path d="M106.941 78.4741H103.606V81.842H106.941V78.4741Z" fill="white"/>
<path d="M29.2365 85.1117H27.5691C26.6242 85.1117 25.9017 84.382 25.9017 83.4278V81.7439H29.2365V85.1117Z" fill="white"/>
<path d="M32.4742 81.7439H29.1393V85.1117H32.4742V81.7439Z" fill="white"/>
<path d="M34.0443 85.1117H32.3769V81.7439H35.7117V83.4278C35.7117 84.382 34.9892 85.1117 34.0443 85.1117Z" fill="white"/>
<path d="M40.5198 85.1117C39.5749 85.1117 38.8524 84.382 38.8524 83.4278V81.7439H42.1872V83.4278C42.1872 84.382 41.4646 85.1117 40.5198 85.1117Z" fill="white"/>
<path d="M48.6626 81.7439H45.3278V85.1117H48.6626V81.7439Z" fill="white"/>
<path d="M58.3757 81.7439H55.0409V85.1117H58.3757V81.7439Z" fill="white"/>
<path d="M61.6134 85.1117H58.2786V81.7439H59.946C60.8908 81.7439 61.6134 82.4736 61.6134 83.4278V85.1117Z" fill="white"/>
<path d="M68.0888 85.1117H66.4214C65.4765 85.1117 64.754 84.382 64.754 83.4278C64.754 82.4736 65.4765 81.7439 66.4214 81.7439H68.0888V85.1117Z" fill="white"/>
<path d="M71.3265 85.1117H67.9917V81.7439H69.6591C70.604 81.7439 71.3265 82.4736 71.3265 83.4278V85.1117Z" fill="white"/>
<path d="M77.8019 81.7439H74.4671V85.1117H77.8019V81.7439Z" fill="white"/>
<path d="M81.0397 81.7439H77.7048V85.1117H81.0397V81.7439Z" fill="white"/>
<path d="M93.9903 81.7439H90.6555V85.1117H93.9903V81.7439Z" fill="white"/>
<path d="M98.7983 85.1117C99.7192 85.1117 100.466 84.3578 100.466 83.4278C100.466 82.4978 99.7192 81.7439 98.7983 81.7439C97.8774 81.7439 97.1309 82.4978 97.1309 83.4278C97.1309 84.3578 97.8774 85.1117 98.7983 85.1117Z" fill="white"/>
<path d="M105.274 85.1117C104.329 85.1117 103.606 84.382 103.606 83.4278V81.7439H106.941V83.4278C106.941 84.382 106.219 85.1117 105.274 85.1117Z" fill="white"/>
<path d="M45.4249 88.3815H42.09V86.6976C42.09 85.7434 42.8126 85.0137 43.7574 85.0137H45.4249V88.3815Z" fill="white"/>
<path d="M46.9952 88.3815H45.3278V85.0137H48.6626V86.6976C48.6626 87.6518 47.94 88.3815 46.9952 88.3815Z" fill="white"/>
<path d="M58.3757 85.0137H55.0409V88.3815H58.3757V85.0137Z" fill="white"/>
<path d="M61.6134 85.0137H58.2786V88.3815H61.6134V85.0137Z" fill="white"/>
<path d="M71.3265 85.0137H67.9917V88.3815H71.3265V85.0137Z" fill="white"/>
<path d="M77.8019 85.0137H74.4671V88.3815H77.8019V85.0137Z" fill="white"/>
<path d="M81.0397 85.0137H77.7048V88.3815H81.0397V85.0137Z" fill="white"/>
<path d="M85.8477 88.3815C86.7685 88.3815 87.5151 87.6276 87.5151 86.6976C87.5151 85.7676 86.7685 85.0137 85.8477 85.0137C84.9268 85.0137 84.1802 85.7676 84.1802 86.6976C84.1802 87.6276 84.9268 88.3815 85.8477 88.3815Z" fill="white"/>
<path d="M93.9903 85.0137H90.6555V88.3815H93.9903V85.0137Z" fill="white"/>
<path d="M97.228 88.3815H93.8932V85.0137H95.5606C96.5055 85.0137 97.228 85.7434 97.228 86.6976V88.3815Z" fill="white"/>
<path d="M103.703 88.3815H100.369V86.6976C100.369 85.7434 101.091 85.0137 102.036 85.0137C102.981 85.0137 103.703 85.7434 103.703 86.6976V88.3815Z" fill="white"/>
<path d="M35.7117 91.6513H32.3769V89.9674C32.3769 89.0131 33.0994 88.2834 34.0443 88.2834C34.9892 88.2834 35.7117 89.0131 35.7117 89.9674V91.6513Z" fill="white"/>
<path d="M42.1872 91.6513H40.5198C39.5749 91.6513 38.8524 90.9216 38.8524 89.9674C38.8524 89.0131 39.5749 88.2834 40.5198 88.2834H42.1872V91.6513Z" fill="white"/>
<path d="M45.4249 88.2834H42.09V91.6513H45.4249V88.2834Z" fill="white"/>
<path d="M51.9003 91.6513H48.5654V89.9674C48.5654 89.0131 49.288 88.2834 50.2328 88.2834H51.9003V91.6513Z" fill="white"/>
<path d="M55.138 88.2834H51.8032V91.6513H55.138V88.2834Z" fill="white"/>
<path d="M58.3757 88.2834H55.0409V91.6513H58.3757V88.2834Z" fill="white"/>
<path d="M61.6134 88.2834H58.2786V91.6513H61.6134V88.2834Z" fill="white"/>
<path d="M68.0888 91.6513H64.754V89.9674C64.754 89.0131 65.4765 88.2834 66.4214 88.2834H68.0888V91.6513Z" fill="white"/>
<path d="M71.3265 88.2834H67.9917V91.6513H71.3265V88.2834Z" fill="white"/>
<path d="M74.5642 88.2834H71.2294V91.6513H74.5642V88.2834Z" fill="white"/>
<path d="M77.8019 88.2834H74.4671V91.6513H77.8019V88.2834Z" fill="white"/>
<path d="M81.0397 88.2834H77.7048V91.6513H81.0397V88.2834Z" fill="white"/>
<path d="M93.9903 88.2834H90.6555V91.6513H93.9903V88.2834Z" fill="white"/>
<path d="M97.228 88.2834H93.8932V91.6513H97.228V88.2834Z" fill="white"/>
<path d="M100.466 88.2834H97.1309V91.6513H100.466V88.2834Z" fill="white"/>
<path d="M103.703 88.2834H100.369V91.6513H103.703V88.2834Z" fill="white"/>
<path d="M106.941 91.6513H103.606V88.2834H105.274C106.219 88.2834 106.941 89.0131 106.941 89.9674V91.6513Z" fill="white"/>
<path d="M29.2365 94.9209H25.9017V93.237C25.9017 92.2828 26.6242 91.5531 27.5691 91.5531H29.2365V94.9209Z" fill="white"/>
<path d="M32.4742 91.5531H29.1393V94.9209H32.4742V91.5531Z" fill="white"/>
<path d="M34.0443 94.9209H32.3769V91.5531H35.7117V93.237C35.7117 94.1912 34.9892 94.9209 34.0443 94.9209Z" fill="white"/>
<path d="M45.4249 94.9209H43.7574C42.8126 94.9209 42.09 94.1912 42.09 93.237V91.5531H45.4249V94.9209Z" fill="white"/>
<path d="M48.6626 91.5531H45.3278V94.9209H48.6626V91.5531Z" fill="white"/>
<path d="M51.9003 91.5531H48.5654V94.9209H51.9003V91.5531Z" fill="white"/>
<path d="M58.3757 91.5531H55.0409V94.9209H58.3757V91.5531Z" fill="white"/>
<path d="M61.6134 91.5531H58.2786V94.9209H61.6134V91.5531Z" fill="white"/>
<path d="M64.8511 91.5531H61.5163V94.9209H64.8511V91.5531Z" fill="white"/>
<path d="M68.0888 91.5531H64.754V94.9209H68.0888V91.5531Z" fill="white"/>
<path d="M69.6591 94.9209H67.9917V91.5531H71.3265V93.237C71.3265 94.1912 70.604 94.9209 69.6591 94.9209Z" fill="white"/>
<path d="M81.0397 94.9209H79.3722C78.4274 94.9209 77.7048 94.1912 77.7048 93.237V91.5531H81.0397V94.9209Z" fill="white"/>
<path d="M84.2773 91.5531H80.9425V94.9209H84.2773V91.5531Z" fill="white"/>
<path d="M87.5151 91.5531H84.1802V94.9209H87.5151V91.5531Z" fill="white"/>
<path d="M90.7526 91.5531H87.4178V94.9209H90.7526V91.5531Z" fill="white"/>
<path d="M93.9903 91.5531H90.6555V94.9209H93.9903V91.5531Z" fill="white"/>
<path d="M103.703 91.5531H100.369V94.9209H103.703V91.5531Z" fill="white"/>
<path d="M105.274 94.9209H103.606V91.5531H106.941V93.237C106.941 94.1912 106.219 94.9209 105.274 94.9209Z" fill="white"/>
<path d="M29.2365 94.8229H25.9017V98.1907H29.2365V94.8229Z" fill="white"/>
<path d="M30.8068 98.1907H29.1393V94.8229H32.4742V96.5068C32.4742 97.461 31.7516 98.1907 30.8068 98.1907Z" fill="white"/>
<path d="M42.1872 98.1907H38.8524V96.5068C38.8524 95.5526 39.5749 94.8229 40.5198 94.8229C41.4646 94.8229 42.1872 95.5526 42.1872 96.5068V98.1907Z" fill="white"/>
<path d="M50.2328 98.1907C49.288 98.1907 48.5654 97.461 48.5654 96.5068V94.8229H51.9003V96.5068C51.9003 97.461 51.1777 98.1907 50.2328 98.1907Z" fill="white"/>
<path d="M58.3757 98.1907H56.7083C55.7634 98.1907 55.0409 97.461 55.0409 96.5068V94.8229H58.3757V98.1907Z" fill="white"/>
<path d="M61.6134 94.8229H58.2786V98.1907H61.6134V94.8229Z" fill="white"/>
<path d="M74.5642 98.1907H71.2294V96.5068C71.2294 95.5526 71.9519 94.8229 72.8968 94.8229H74.5642V98.1907Z" fill="white"/>
<path d="M77.8019 98.1907H74.4671V94.8229H76.1345C77.0794 94.8229 77.8019 95.5526 77.8019 96.5068V98.1907Z" fill="white"/>
<path d="M84.2773 94.8229H80.9425V98.1907H84.2773V94.8229Z" fill="white"/>
<path d="M92.3229 98.1907C91.3781 98.1907 90.6555 97.461 90.6555 96.5068V94.8229H93.9903V96.5068C93.9903 97.461 93.2678 98.1907 92.3229 98.1907Z" fill="white"/>
<path d="M100.466 98.1907H97.1309V96.5068C97.1309 95.5526 97.8535 94.8229 98.7983 94.8229H100.466V98.1907Z" fill="white"/>
<path d="M102.036 98.1907H100.369V94.8229H103.703V96.5068C103.703 97.461 102.981 98.1907 102.036 98.1907Z" fill="white"/>
<path d="M27.5691 101.46C26.6242 101.46 25.9017 100.731 25.9017 99.7766V98.0927H29.2365V99.7766C29.2365 100.731 28.514 101.46 27.5691 101.46Z" fill="white"/>
<path d="M38.9495 101.46H35.6146V99.7766C35.6146 98.8224 36.3372 98.0927 37.282 98.0927H38.9495V101.46Z" fill="white"/>
<path d="M42.1872 98.0927H38.8524V101.46H42.1872V98.0927Z" fill="white"/>
<path d="M55.138 101.46H51.8032V99.7766C51.8032 98.8224 52.5257 98.0927 53.4706 98.0927C54.4154 98.0927 55.138 98.8224 55.138 99.7766V101.46Z" fill="white"/>
<path d="M59.946 101.46C59.0011 101.46 58.2786 100.731 58.2786 99.7766V98.0927H61.6134V99.7766C61.6134 100.731 60.8908 101.46 59.946 101.46Z" fill="white"/>
<path d="M66.4214 101.46C67.3423 101.46 68.0888 100.707 68.0888 99.7766C68.0888 98.8466 67.3423 98.0927 66.4214 98.0927C65.5005 98.0927 64.754 98.8466 64.754 99.7766C64.754 100.707 65.5005 101.46 66.4214 101.46Z" fill="white"/>
<path d="M74.5642 101.46H72.8968C71.9519 101.46 71.2294 100.731 71.2294 99.7766V98.0927H74.5642V101.46Z" fill="white"/>
<path d="M76.1345 101.46H74.4671V98.0927H77.8019V99.7766C77.8019 100.731 77.0794 101.46 76.1345 101.46Z" fill="white"/>
<path d="M84.2773 101.46H82.6099C81.6651 101.46 80.9425 100.731 80.9425 99.7766V98.0927H84.2773V101.46Z" fill="white"/>
<path d="M87.5151 101.46H84.1802V98.0927H85.8477C86.7925 98.0927 87.5151 98.8224 87.5151 99.7766V101.46Z" fill="white"/>
<path d="M97.228 101.46H95.5606C94.6157 101.46 93.8932 100.731 93.8932 99.7766C93.8932 98.8224 94.6157 98.0927 95.5606 98.0927H97.228V101.46Z" fill="white"/>
<path d="M100.466 98.0927H97.1309V101.46H100.466V98.0927Z" fill="white"/>
<path d="M32.4742 104.73H29.1393V103.046C29.1393 102.092 29.8619 101.362 30.8068 101.362H32.4742V104.73Z" fill="white"/>
<path d="M35.7117 101.362H32.3769V104.73H35.7117V101.362Z" fill="white"/>
<path d="M38.9495 101.362H35.6146V104.73H38.9495V101.362Z" fill="white"/>
<path d="M42.1872 101.362H38.8524V104.73H42.1872V101.362Z" fill="white"/>
<path d="M45.4249 101.362H42.09V104.73H45.4249V101.362Z" fill="white"/>
<path d="M46.9952 104.73H45.3278V101.362H46.9952C47.94 101.362 48.6626 102.092 48.6626 103.046C48.6626 104.001 47.94 104.73 46.9952 104.73Z" fill="white"/>
<path d="M55.138 104.73H53.4706C52.5257 104.73 51.8032 104.001 51.8032 103.046V101.362H55.138V104.73Z" fill="white"/>
<path d="M56.7083 104.73H55.0409V101.362H56.7083C57.6532 101.362 58.3757 102.092 58.3757 103.046C58.3757 104.001 57.6532 104.73 56.7083 104.73Z" fill="white"/>
<path d="M87.5151 101.362H84.1802V104.73H87.5151V101.362Z" fill="white"/>
<path d="M89.0852 104.73H87.4178V101.362H89.0852C90.0301 101.362 90.7526 102.092 90.7526 103.046C90.7526 104.001 90.0301 104.73 89.0852 104.73Z" fill="white"/>
<path d="M100.466 101.362H97.1309V104.73H100.466V101.362Z" fill="white"/>
<path d="M32.4742 108H30.8068C29.8619 108 29.1393 107.27 29.1393 106.316V104.632H32.4742V108Z" fill="white"/>
<path d="M34.0443 108H32.3769V104.632H35.7117V106.316C35.7117 107.27 34.9892 108 34.0443 108Z" fill="white"/>
<path d="M42.1872 108H40.5198C39.5749 108 38.8524 107.27 38.8524 106.316V104.632H42.1872V108Z" fill="white"/>
<path d="M43.7574 108H42.09V104.632H45.4249V106.316C45.4249 107.27 44.7023 108 43.7574 108Z" fill="white"/>
<path d="M50.2328 108C51.1537 108 51.9003 107.246 51.9003 106.316C51.9003 105.386 51.1537 104.632 50.2328 104.632C49.312 104.632 48.5654 105.386 48.5654 106.316C48.5654 107.246 49.312 108 50.2328 108Z" fill="white"/>
<path d="M63.1837 108C64.1046 108 64.8511 107.246 64.8511 106.316C64.8511 105.386 64.1046 104.632 63.1837 104.632C62.2628 104.632 61.5163 105.386 61.5163 106.316C61.5163 107.246 62.2628 108 63.1837 108Z" fill="white"/>
<path d="M71.3265 108H69.6591C68.7142 108 67.9917 107.27 67.9917 106.316C67.9917 105.362 68.7142 104.632 69.6591 104.632H71.3265V108Z" fill="white"/>
<path d="M72.8968 108H71.2294V104.632H72.8968C73.8417 104.632 74.5642 105.362 74.5642 106.316C74.5642 107.27 73.8417 108 72.8968 108Z" fill="white"/>
<path d="M81.0397 108H79.3722C78.4274 108 77.7048 107.27 77.7048 106.316C77.7048 105.362 78.4274 104.632 79.3722 104.632H81.0397V108Z" fill="white"/>
<path d="M84.2773 104.632H80.9425V108H84.2773V104.632Z" fill="white"/>
<path d="M85.8477 108H84.1802V104.632H87.5151V106.316C87.5151 107.27 86.7925 108 85.8477 108Z" fill="white"/>
<path d="M97.228 108H95.5606C94.6157 108 93.8932 107.27 93.8932 106.316C93.8932 105.362 94.6157 104.632 95.5606 104.632H97.228V108Z" fill="white"/>
<path d="M100.466 104.632H97.1309V108H100.466V104.632Z" fill="white"/>
<path d="M102.036 108H100.369V104.632H102.036C102.981 104.632 103.703 105.362 103.703 106.316C103.703 107.27 102.981 108 102.036 108Z" fill="white"/>
<path d="M7.28482 22.8883H15.541C19.4262 22.8883 22.6639 19.6185 22.6639 15.6948V7.35695C22.6639 3.26976 19.4262 0 15.3791 0H7.12294C3.2377 0 0 3.26976 0 7.19346V15.5313C0 19.6185 3.2377 22.8883 7.28482 22.8883ZM19.4262 7.84741V15.0409C19.4262 17.4932 17.3217 19.6185 14.8934 19.6185H7.77048C5.18032 19.6185 3.2377 17.6567 3.2377 15.0409V7.84741C3.2377 5.3951 5.3422 3.26976 7.77048 3.26976H14.8934C17.4836 3.26976 19.4262 5.23161 19.4262 7.84741Z" fill="white"/>
<path d="M91.4651 22.8883H99.7212C103.606 22.8883 106.844 19.6185 106.844 15.6948V7.35695C106.844 3.26976 103.606 0 99.5593 0H91.3032C87.4179 0 84.1802 3.26976 84.1802 7.19346V15.5313C84.1802 19.6185 87.4179 22.8883 91.4651 22.8883ZM103.606 7.84741V15.0409C103.606 17.4932 101.502 19.6185 99.0737 19.6185H91.9507C89.3606 19.6185 87.4179 17.6567 87.4179 15.0409V7.84741C87.4179 5.3951 89.5224 3.26976 91.9507 3.26976H99.0737C101.664 3.26976 103.606 5.23161 103.606 7.84741Z" fill="white"/>
<path d="M7.28482 107.902H15.541C19.4262 107.902 22.6639 104.632 22.6639 100.708V92.3706C22.6639 88.2834 19.4262 85.0137 15.3791 85.0137H7.12294C3.2377 85.0137 0 88.2834 0 92.2071V100.545C0 104.632 3.2377 107.902 7.28482 107.902ZM19.4262 92.8611V100.055C19.4262 102.507 17.3217 104.632 14.8934 104.632H7.77048C5.18032 104.632 3.2377 102.67 3.2377 100.055V92.8611C3.2377 90.4088 5.3422 88.2834 7.77048 88.2834H14.8934C17.4836 88.2834 19.4262 90.2453 19.4262 92.8611Z" fill="white"/>
<path d="M16.1885 9.31884V13.733C16.1885 15.0409 14.8934 16.3488 13.4365 16.3488H9.22745C7.6086 16.3488 6.4754 15.2044 6.4754 13.5695V9.31884C6.4754 7.84745 7.77048 6.53955 9.22745 6.53955H13.5983C15.0553 6.53955 16.1885 7.68397 16.1885 9.31884Z" fill="white"/>
<path d="M100.369 9.31884V13.733C100.369 15.0409 99.0735 16.3488 97.6166 16.3488H93.4076C91.7887 16.3488 90.6555 15.2044 90.6555 13.5695V9.31884C90.6555 7.84745 91.9506 6.53955 93.4076 6.53955H97.7785C99.2354 6.53955 100.369 7.68397 100.369 9.31884Z" fill="white"/>
<path d="M16.1885 94.3324V98.7466C16.1885 100.054 14.8934 101.362 13.4365 101.362H9.22745C7.6086 101.362 6.4754 100.218 6.4754 98.5831V94.3324C6.4754 92.861 7.77048 91.5531 9.22745 91.5531H13.5983C15.0553 91.5531 16.1885 92.6975 16.1885 94.3324Z" fill="white"/>
</svg>
