<svg id="svg-scan" viewBox="0 0 30 30" fill="currentColor" xmlns="http://www.w3.org/2000/svg">
<path fill-rule="evenodd" clip-rule="evenodd" d="M21.4527 6C22.8575 6 24 7.14283 24 8.54758V11.5387C24 11.951 23.6655 12.2855 23.2532 12.2855C22.8409 12.2855 22.5066 11.951 22.5066 11.5387V8.54758C22.5066 7.96641 22.0339 7.49331 21.4527 7.49331H8.54735C7.96611 7.49331 7.49347 7.96641 7.49347 8.54758V11.5387C7.49347 11.951 7.1591 12.2855 6.74682 12.2855C6.33455 12.2854 6 11.951 6 11.5387V8.54758C6 7.1428 7.14254 6 8.54735 6H21.4527ZM9.84367 9.05668C9.41089 9.05668 9.05684 9.41075 9.05684 9.84352V14.1746H20.9432V9.84352C20.9432 9.41075 20.5891 9.05668 20.1564 9.05668H9.84367ZM20.9432 15.8253V20.1563C20.9432 20.5891 20.5891 20.9432 20.1564 20.9432H9.84367C9.41089 20.9432 9.05684 20.5891 9.05684 20.1563V15.8253H20.9432ZM23.2532 17.7148C22.8408 17.7148 22.5066 18.0491 22.5066 18.4615V21.4527C22.5066 22.0337 22.0337 22.5066 21.4527 22.5066H8.54735C7.96629 22.5066 7.49347 22.0337 7.49347 21.4527V18.4615C7.49347 18.0491 7.15928 17.7148 6.74682 17.7148C6.33437 17.7148 6 18.0491 6 18.4615V21.4527C6 22.8573 7.14275 24 8.54735 24H21.4527C22.8572 24 24 22.8573 24 21.4527V18.4615C24 18.0491 23.6656 17.7148 23.2532 17.7148Z"/>
</svg>
