<svg id="svg-search" viewBox="0 0 20 20" fill="currentColor" xmlns="http://www.w3.org/2000/svg">
<path d="M16.3412 15.5752L13.108 12.3421C13.8728 11.4083 14.3332 10.2155 14.3332 8.91661C14.3332 5.92989 11.9033 3.5 8.91661 3.5C5.92989 3.5 3.5 5.92989 3.5 8.91661C3.5 11.9033 5.92989 14.3332 8.91661 14.3332C10.2155 14.3332 11.4083 13.8728 12.3421 13.108L15.5752 16.3412C15.787 16.5529 16.1294 16.5529 16.3412 16.3412C16.5529 16.1294 16.5529 15.787 16.3412 15.5752ZM4.58332 8.91661C4.58332 6.52734 6.52734 4.58332 8.91661 4.58332C11.3059 4.58332 13.2499 6.52734 13.2499 8.91661C13.2499 11.3059 11.3059 13.2499 8.91661 13.2499C6.52734 13.2499 4.58332 11.3059 4.58332 8.91661Z"/>
</svg>
