<svg id="svg-share" viewBox="0 0 18 18" fill="currentColor" xmlns="http://www.w3.org/2000/svg">
<path d="M15.9883 6.45261L12.5928 2.93715C12.3126 2.64708 12.0284 2.5 11.7482 2.5C11.3634 2.5 10.9141 2.80302 10.9141 3.65705V4.85386C8.44714 4.96518 6.14338 6.01264 4.38627 7.83174C2.52521 9.75844 1.50018 12.3201 1.5 15.045C1.5 15.2408 1.62094 15.4146 1.80029 15.4766C1.84608 15.4924 1.89296 15.5 1.93939 15.5C2.07495 15.5 2.20617 15.4349 2.29078 15.3183C4.36556 12.459 7.48919 10.7692 10.9141 10.6358V11.8142C10.9141 12.6682 11.3634 12.9713 11.7482 12.9713H11.7483C12.0285 12.9713 12.3127 12.8242 12.5928 12.5342L15.9882 9.01864C16.3183 8.67707 16.5 8.22142 16.5 7.73562C16.5 7.24991 16.3183 6.79424 15.9883 6.45261Z"/>
</svg>
