<svg id="svg-user" viewBox="0 0 24 24" fill="currentColor" xmlns="http://www.w3.org/2000/svg">
<path d="M11.8717 11.6707C13.0629 11.6707 14.0944 11.2434 14.9372 10.4005C15.78 9.55771 16.2072 8.52651 16.2072 7.33519C16.2072 6.14427 15.78 5.11294 14.9371 4.26988C14.0941 3.42723 13.0628 3 11.8717 3C10.6804 3 9.6492 3.42723 8.80641 4.27001C7.96362 5.1128 7.53625 6.14414 7.53625 7.33519C7.53625 8.52651 7.96362 9.55785 8.80655 10.4006C9.64948 11.2433 10.6808 11.6707 11.8717 11.6707Z"/>
<path d="M19.4577 16.8411C19.4333 16.4904 19.3842 16.1078 19.3118 15.7037C19.2388 15.2967 19.1447 14.9119 19.0321 14.5602C18.9158 14.1967 18.7576 13.8377 18.562 13.4937C18.359 13.1367 18.1206 12.8257 17.8531 12.5699C17.5734 12.3022 17.2309 12.087 16.8348 11.9301C16.4401 11.7739 16.0027 11.6948 15.5349 11.6948C15.3511 11.6948 15.1734 11.7702 14.8302 11.9937C14.619 12.1314 14.3719 12.2907 14.0962 12.4669C13.8604 12.6171 13.541 12.7579 13.1464 12.8853C12.7615 13.0099 12.3707 13.0731 11.9849 13.0731C11.5991 13.0731 11.2084 13.0099 10.8231 12.8853C10.429 12.758 10.1095 12.6173 9.87401 12.467C9.60086 12.2925 9.35367 12.1332 9.1393 11.9935C8.79652 11.7701 8.61868 11.6947 8.43494 11.6947C7.96692 11.6947 7.52966 11.7739 7.13512 11.9302C6.73933 12.0869 6.3967 12.3021 6.11668 12.57C5.8493 12.826 5.61076 13.1368 5.40807 13.4937C5.21265 13.8377 5.05444 14.1966 4.93799 14.5603C4.82552 14.912 4.73145 15.2967 4.65839 15.7037C4.58601 16.1072 4.53685 16.4899 4.51254 16.8415C4.48865 17.1859 4.47656 17.5434 4.47656 17.9044C4.47656 18.844 4.77525 19.6047 5.36426 20.1657C5.94598 20.7192 6.71571 21.0001 7.65175 21.0001H16.3189C17.2549 21.0001 18.0244 20.7194 18.6062 20.1657C19.1954 19.6051 19.494 18.8443 19.494 17.9043C19.4939 17.5416 19.4817 17.1839 19.4577 16.8411Z"/>
</svg>