<svg id="svg-check" viewBox="0 0 16 16" fill="currentColor" xmlns="http://www.w3.org/2000/svg">
<path d="M2.45522 7.39374C2.17967 7.39453 1.90997 7.47534 1.67732 7.62681C1.44467 7.77828 1.25858 7.99422 1.14058 8.24966C1.02258 8.50509 0.977491 8.78958 1.01053 9.07021C1.04356 9.35083 1.15338 9.61613 1.32726 9.83541L5.03411 14.4935C5.16627 14.6619 5.33569 14.7955 5.52828 14.8832C5.72088 14.9709 5.93109 15.0101 6.14146 14.9978C6.59139 14.973 6.9976 14.7261 7.25658 14.3201L14.9566 1.59896C14.9579 1.59685 14.9592 1.59474 14.9606 1.59266C15.0328 1.47887 15.0094 1.25335 14.8603 1.11168C14.8193 1.07278 14.771 1.04289 14.7183 1.02385C14.6657 1.00482 14.6098 0.997043 14.5541 1.00101C14.4984 1.00497 14.4441 1.02059 14.3945 1.04689C14.3449 1.0732 14.3011 1.10965 14.2658 1.15398C14.263 1.15747 14.2602 1.1609 14.2572 1.16428L6.49163 10.1648C6.46209 10.1991 6.4262 10.227 6.38605 10.2469C6.34591 10.2668 6.30231 10.2783 6.25779 10.2808C6.21327 10.2832 6.16871 10.2766 6.12671 10.2613C6.08471 10.2459 6.0461 10.2222 6.01312 10.1914L3.43586 7.78549C3.16819 7.53379 2.81834 7.39402 2.45522 7.39374Z"/>
</svg>
