<svg id="svg-notify" viewBox="0 0 24 24" fill="currentColor" xmlns="http://www.w3.org/2000/svg">
<path d="M19.9097 15.6657C19.8383 15.5797 19.7683 15.4938 19.6996 15.4109C18.7542 14.2675 18.1823 13.5774 18.1823 10.3405C18.1823 8.66477 17.7814 7.28977 16.9912 6.25852C16.4086 5.49668 15.621 4.91875 14.5828 4.49164C14.5695 4.48421 14.5575 4.47446 14.5476 4.46285C14.1742 3.21246 13.1524 2.375 12 2.375C10.8476 2.375 9.8262 3.21246 9.4528 4.46156C9.44283 4.47275 9.43107 4.48219 9.41799 4.48949C6.99542 5.4868 5.81807 7.4002 5.81807 10.3393C5.81807 13.5774 5.24702 14.2675 4.30084 15.4096C4.23209 15.4925 4.16206 15.5767 4.09073 15.6644C3.90648 15.8866 3.78974 16.1569 3.75433 16.4434C3.71892 16.7299 3.76632 17.0205 3.89092 17.2809C4.15604 17.8395 4.72108 18.1862 5.36604 18.1862H18.6387C19.2806 18.1862 19.8418 17.8399 20.1078 17.2839C20.2329 17.0234 20.2807 16.7326 20.2456 16.4458C20.2105 16.159 20.0939 15.8882 19.9097 15.6657Z"/>
<path d="M12 21.625C12.6209 21.6245 13.2301 21.456 13.763 21.1372C14.2959 20.8185 14.7326 20.3615 15.0267 19.8147C15.0406 19.7885 15.0474 19.7592 15.0466 19.7295C15.0458 19.6999 15.0373 19.671 15.022 19.6456C15.0067 19.6202 14.9851 19.5992 14.9592 19.5847C14.9334 19.5701 14.9043 19.5625 14.8746 19.5625H9.12627C9.09659 19.5624 9.06739 19.57 9.04151 19.5845C9.01563 19.599 8.99396 19.62 8.9786 19.6454C8.96324 19.6708 8.95472 19.6998 8.95387 19.7294C8.95301 19.7591 8.95986 19.7885 8.97374 19.8147C9.26787 20.3615 9.70448 20.8184 10.2373 21.1371C10.7701 21.4558 11.3792 21.6244 12 21.625Z"/>
</svg>
