<svg id="svg-telegram" viewBox="0 0 24 24" fill="currentColor" xmlns="http://www.w3.org/2000/svg">
<path d="M20.7097 2.66774C20.7097 2.66774 22.6523 1.84531 22.4904 3.84264C22.4365 4.66508 21.9508 7.54357 21.5731 10.6571L20.278 19.88C20.278 19.88 20.1701 21.2312 19.1987 21.4662C18.2274 21.7011 16.7704 20.6437 16.5006 20.4087C16.2847 20.2325 12.4534 17.589 11.1043 16.2966C10.7266 15.9441 10.2949 15.2392 11.1583 14.4167L16.8244 8.54227C17.4719 7.83731 18.1195 6.19246 15.4213 8.18979L7.86655 13.7706C7.86655 13.7706 7.00315 14.358 5.3843 13.8293L1.87671 12.6544C1.87671 12.6544 0.581605 11.7732 2.79408 10.892C8.19035 8.131 14.8278 5.31124 20.7097 2.66774Z"/>
</svg>
