<svg width="91" height="61" viewBox="0 0 91 61" fill="none" xmlns="http://www.w3.org/2000/svg">
<path d="M0 0H91V61H0V0Z" fill="#0024F1"/>
<path fill-rule="evenodd" clip-rule="evenodd" d="M19 17.3486L45.2463 24.0427L60 17L47.2466 34L19 17.3486Z" fill="#FF2E3A"/>
<path fill-rule="evenodd" clip-rule="evenodd" d="M46.5029 22.3268C45.5318 22.3268 44.5826 22.053 43.7754 21.54C42.9682 21.027 42.3393 20.298 41.9683 19.4452C41.5973 18.5923 41.5008 17.654 41.6912 16.7491C41.8816 15.8441 42.3502 15.0132 43.0378 14.3615C43.7253 13.7098 44.6008 13.2667 45.5535 13.0881C46.5062 12.9096 47.4932 13.0037 48.3896 13.3585C49.286 13.7134 50.0514 14.313 50.5891 15.0815C51.1267 15.85 51.4123 16.7528 51.4097 17.6757C51.4097 18.2875 51.2827 18.8933 51.036 19.4584C50.7892 20.0235 50.4276 20.5368 49.9718 20.9689C49.5159 21.4009 48.9749 21.7433 48.3797 21.9763C47.7844 22.2093 47.1466 22.3284 46.5029 22.3268ZM72.9871 47.6441L38.9747 41.0908L21 48L36.9215 30.4877L73 47.6687L72.9871 47.6441Z" fill="white"/>
</svg>
