<svg viewBox="0 0 260 183" fill="none" xmlns="http://www.w3.org/2000/svg">
<g clip-path="url(#clip0_128_402)">
<g style="mix-blend-mode:multiply" opacity="0.42">
<path d="M136.243 167.813C153.207 167.813 166.959 164.97 166.959 161.464C166.959 157.957 153.207 155.114 136.243 155.114C119.28 155.114 105.528 157.957 105.528 161.464C105.528 164.97 119.28 167.813 136.243 167.813Z" fill="#0D0C13"/>
</g>
<g style="mix-blend-mode:multiply" opacity="0.42">
<path d="M73.2698 167.813C73.2698 164.306 59.5222 161.464 42.554 161.464C25.5857 161.464 11.831 164.306 11.831 167.813C11.831 169.766 16.0964 171.509 22.7973 172.673C10.0224 172.912 0 175.125 0 177.829C0 180.686 11.2041 183 25.0165 183C38.8289 183 50.0402 180.686 50.0402 177.829C50.0402 176.383 47.2301 175.103 42.6837 174.163C59.5871 174.148 73.2698 171.313 73.2698 167.813Z" fill="#0D0C13"/>
</g>
<g style="mix-blend-mode:multiply" opacity="0.42">
<path d="M229.284 167.813C246.248 167.813 260 164.97 260 161.464C260 157.957 246.248 155.114 229.284 155.114C212.32 155.114 198.568 157.957 198.568 161.464C198.568 164.97 212.32 167.813 229.284 167.813Z" fill="#0D0C13"/>
</g>
<path d="M159.797 111.217C159.797 111.217 165.215 98.6196 177.745 93.9696C177.745 93.9696 178.098 90.0645 180.058 89.8909C182.018 89.7173 181.629 91.9375 181.629 91.9375C181.629 91.9375 188.056 86.5354 194.721 89.833C201.386 93.1307 178.451 96.5297 178.451 96.5297C174 98.8832 170.133 102.213 167.14 106.272C164.146 110.331 162.102 115.014 161.159 119.975C161.159 119.975 157.953 117.003 159.797 111.217Z" fill="#022E98"/>
<path d="M124.153 129.608L125.284 162.303C125.284 162.303 136.438 164.306 135.508 160.798C134.579 157.291 127.359 159.988 127.359 159.988L130.703 129.861C130.756 129.385 130.705 128.904 130.554 128.45C130.403 127.996 130.155 127.581 129.828 127.233C129.501 126.885 129.103 126.612 128.66 126.434C128.218 126.256 127.742 126.177 127.266 126.202C126.404 126.243 125.594 126.624 125.011 127.262C124.428 127.9 124.12 128.743 124.153 129.608Z" fill="#022E98"/>
<path d="M143.622 127.93L144.753 160.625C144.753 160.625 155.906 162.621 154.977 159.121C154.048 155.621 146.828 158.303 146.828 158.303L150.171 128.176C150.223 127.701 150.171 127.22 150.02 126.767C149.868 126.313 149.62 125.898 149.294 125.55C148.967 125.203 148.569 124.93 148.127 124.752C147.685 124.573 147.21 124.493 146.734 124.517C145.873 124.563 145.065 124.947 144.483 125.585C143.901 126.224 143.592 127.065 143.622 127.93Z" fill="#022E98"/>
<path d="M97.6162 124.828C97.5081 130.772 99.8426 135.191 101.593 136.153C104.036 137.498 103.633 132.898 103.633 132.898C103.633 132.898 109.57 155.1 135.335 152.938C161.101 150.775 164.668 138.684 164.668 138.684C164.668 138.684 166.829 141.446 168.155 134.952C167.499 135.436 166.815 135.883 166.109 136.29C143.679 150.038 111.501 147.933 97.6162 124.828Z" fill="#002A96"/>
<path d="M169.171 122.13C169.409 100.196 155.481 93.8395 155.481 93.8395C157.996 93.6948 157.247 92.0677 157.247 92.0677C151.951 84.5683 142.498 83.6065 135.696 84.0549C132 89.3558 124.052 90.6936 117.683 88.3939C101.594 93.232 95.4908 115.622 96.341 117.777C97.2416 120.069 99.0717 117.27 99.0717 117.27C98.1743 119.701 97.6873 122.265 97.6307 124.857C111.515 147.962 143.694 150.066 166.159 136.319C166.866 135.912 167.549 135.465 168.206 134.981C168.71 132.378 169.099 128.357 169.171 122.13Z" fill="url(#paint0_linear_128_402)"/>
<path d="M136.632 104.34C136.456 104.173 136.331 103.958 136.274 103.721C136.217 103.484 136.23 103.236 136.311 103.006C136.392 102.776 136.537 102.575 136.73 102.427C136.923 102.278 137.154 102.189 137.396 102.17C140.444 101.903 147.296 101.606 147.246 104.282C147.195 106.958 139.154 106.647 136.632 104.34Z" fill="#BF5C19"/>
<path d="M152.844 123.757C151.627 123.62 150.395 123.732 149.222 124.087C148.049 124.441 146.96 125.03 146.021 125.818L145.934 125.898C142.966 128.458 138.506 124.35 141.971 120.301C145.437 116.251 151.979 114.963 155.661 117.458C158.911 119.642 157.636 124.256 152.844 123.757Z" fill="#181818"/>
<mask id="mask0_128_402" style="mask-type:luminance" maskUnits="userSpaceOnUse" x="140" y="116" width="18" height="11">
<path d="M152.844 123.757C151.627 123.62 150.395 123.732 149.222 124.087C148.049 124.441 146.96 125.03 146.021 125.818L145.934 125.898C142.966 128.458 138.506 124.35 141.971 120.301C145.437 116.251 151.979 114.963 155.661 117.458C158.911 119.642 157.636 124.256 152.844 123.757Z" fill="white"/>
</mask>
<g mask="url(#mask0_128_402)">
<path d="M156.785 122.767C157.268 124.618 154.703 126.903 151.057 127.865C147.411 128.827 144.061 128.096 143.578 126.238C143.096 124.379 145.653 122.101 149.299 121.139C152.945 120.178 156.295 120.908 156.785 122.767Z" fill="#D04642"/>
</g>
<path d="M146.59 127.163C147.625 126.364 148.81 125.781 150.073 125.448C151.337 125.115 152.654 125.039 153.947 125.225C153.947 125.225 150.056 123.36 146.59 127.163Z" fill="#1947BF"/>
<path d="M157.073 123.764C157.721 123.364 158.237 122.782 158.56 122.091C158.882 121.4 158.997 120.629 158.889 119.874C158.889 119.874 160.316 122.672 157.073 123.764Z" fill="#1947BF"/>
<path d="M143.11 127.431C142.35 127.402 141.616 127.151 140.997 126.709C140.377 126.267 139.9 125.653 139.623 124.943C139.623 124.943 139.731 128.096 143.11 127.431Z" fill="#1947BF"/>
<path d="M111.904 121.038C111.904 121.038 105.7 111.268 79.7976 118.189C79.7976 118.189 75.9068 116.243 74.336 116.742C72.7653 117.241 74.9269 118.355 74.9269 118.355C74.9269 118.355 69.7463 120.409 68.9321 124.386C68.1179 128.364 73.176 128.451 73.9758 127.655C74.7756 126.86 77.5784 121.342 80.4605 121.024C80.4605 121.024 81.6926 120.38 81.8151 120.033C81.9375 119.686 98.6104 117.234 106.86 124.683C106.86 124.683 108.719 127.163 110.578 126.961C110.6 126.968 116.306 125.76 111.904 121.038Z" fill="#022E98"/>
<path d="M133.657 107.124C133.862 108.91 134.59 110.595 135.749 111.965C136.909 113.335 138.448 114.329 140.17 114.821C141.893 115.313 143.722 115.281 145.427 114.729C147.131 114.176 148.634 113.129 149.745 111.719C150.856 110.309 151.525 108.6 151.668 106.808C151.811 105.016 151.42 103.221 150.546 101.652C149.672 100.083 148.354 98.8096 146.758 97.993C145.162 97.1763 143.361 96.8533 141.582 97.0648C139.204 97.3476 137.034 98.5651 135.549 100.451C134.063 102.336 133.383 104.736 133.657 107.124Z" fill="white"/>
<path d="M138.124 106.307C138.571 110.198 141.727 113.025 145.228 112.628C148.73 112.23 151.158 108.744 150.711 104.853C150.265 100.963 147.109 98.1423 143.614 98.5401C140.12 98.9378 137.684 102.409 138.124 106.307Z" fill="#3137D2"/>
<path d="M144.104 102.489C144.183 102.835 144.36 103.15 144.614 103.397C144.868 103.644 145.187 103.812 145.534 103.881C145.881 103.949 146.24 103.916 146.568 103.784C146.897 103.652 147.18 103.427 147.383 103.137C147.587 102.847 147.703 102.504 147.717 102.15C147.73 101.795 147.642 101.444 147.461 101.139C147.28 100.835 147.015 100.589 146.698 100.431C146.381 100.274 146.026 100.213 145.675 100.254C145.172 100.342 144.724 100.627 144.43 101.046C144.135 101.465 144.018 101.983 144.104 102.489Z" fill="white"/>
<path d="M148.651 94.4758C149.055 94.5411 149.429 94.7335 149.718 95.0253C150.007 95.3172 150.196 95.6935 150.259 96.1001C150.321 96.5067 150.254 96.9228 150.066 97.2884C149.878 97.654 149.579 97.9505 149.213 98.135C144.673 100.442 134.449 105.41 131.855 104.723C128.491 103.841 133.664 97.6578 138.268 94.9965C142.75 92.4003 146.266 94.0997 148.651 94.4758Z" fill="#1947BF"/>
<path d="M144.032 116.641C144.032 116.641 138.484 118.333 134.824 114.392C134.824 114.392 137.461 119.505 144.032 116.641Z" fill="#1947BF"/>
<path d="M153.673 104.231C153.673 104.231 154.624 109.973 150.265 113.112C150.265 113.112 155.633 111.138 153.673 104.231Z" fill="#1947BF"/>
<path d="M141.374 84.0765C139.255 84.0187 137.324 84.0765 135.609 84.1922L135.717 84.0548C133.001 84.2262 130.306 84.6548 127.669 85.3349C127.669 85.3349 130.767 79.6218 127.503 79.7013C124.24 79.7808 124.686 83.7294 124.686 83.7294C124.686 83.7294 122.979 79.1083 121.379 79.3903C119.78 79.6724 122.1 85.0745 122.1 85.0745C122.1 85.0745 116.818 81.1043 111.659 81.8564C106.5 82.6085 120.752 87.6418 120.752 87.6418C120.752 87.6418 108.381 88.365 100.707 103.928C100.707 103.928 99.0501 107.377 105.42 104.969C109.094 103.664 112.23 101.168 114.332 97.8747C114.332 97.8747 114.008 103.964 118.043 102.279C120.425 101.205 122.407 99.403 123.706 97.1299C123.072 98.352 121.408 101.99 124.564 101.057C125.612 100.764 126.526 100.117 127.153 99.2243C127.779 98.332 128.079 97.2496 128.001 96.1608C128.001 96.1608 130.587 98.663 132.389 97.8675C134.19 97.072 134.111 94.2082 134.111 94.2082C135.677 94.6499 137.351 94.4847 138.801 93.7454C141.388 92.516 139.853 91.4963 139.853 91.4963C139.853 91.4963 146.453 92.9427 147.455 92.6173C148.341 92.328 147.851 90.3609 145.639 89.8113C147.635 90.0934 152.325 90.6864 154.098 90.2308C156.353 89.6739 149.602 84.2862 141.374 84.0765Z" fill="#022E98"/>
<path d="M162.924 138.127C162.924 138.127 167.622 136.615 169.128 124.386C169.128 124.386 169.712 135.024 166.563 138.908C166.128 138.393 165.534 138.037 164.876 137.895C164.218 137.754 163.532 137.835 162.924 138.127Z" fill="#06226B"/>
<path d="M33.3169 79.2312L38.8865 166.012C41.406 167.43 44.3225 167.969 47.1797 167.546L47.612 161.565L49.0531 166.996C49.0531 166.996 51.9352 166.425 52.5764 165.68C53.2177 164.935 42.4099 77.9801 42.4099 77.9801C42.4099 77.9801 35.4424 77.0762 33.3169 79.2312Z" fill="#A85A33"/>
<path d="M5.72095 77.286L8.17792 103.942L12.6091 103.53L9.16504 106.054L10.8006 124.358L82.2907 111.261L79.668 91.2795L77.0453 91.4386L79.5023 89.1533L76.7139 68.5645L5.72095 77.286Z" fill="#FCCCB1"/>
<path d="M18.222 99.0752L22.0912 103.205L18.6976 103.675L14.8284 99.5525L17.4222 94.4902L20.8087 94.0129L18.222 99.0752Z" fill="#3BA5ED"/>
<path d="M29.7431 90.0139L32.4523 89.6306L34.4841 104.181L31.775 104.564L30.932 98.5329L26.6088 99.1332L27.4446 105.164L24.7427 105.548L22.7036 90.9974L25.4128 90.6214L26.227 96.4429L30.5501 95.8355L29.7431 90.0139Z" fill="#3BA5ED"/>
<path d="M34.8301 89.2979L37.5392 88.9508L39.1892 100.811L42.5685 100.334L42.9431 103.031L36.8619 103.884L34.8301 89.2979Z" fill="#3BA5ED"/>
<path d="M55.0046 86.4558L57.0365 101.006L54.3273 101.389L53.1817 93.1814L51.7407 101.751L49.7304 102.033L45.9981 94.1938L47.1509 102.402L44.4418 102.778L42.4099 88.2276L45.5154 87.7937L50.1195 97.3758L51.8776 86.8969L55.0046 86.4558Z" fill="#3BA5ED"/>
<path d="M56.9933 88.9508L56.6187 86.2606L65.3946 85.0239L65.7693 87.7214L62.7287 88.1481L64.3859 100.001L61.6767 100.384L60.0195 88.5313L56.9933 88.9508Z" fill="#3BA5ED"/>
<path d="M68.4926 96.6671L71.0865 91.6048L67.2173 87.5044L70.6037 87.0271L74.4729 91.1564L71.8863 96.2187L68.4926 96.6671Z" fill="#3BA5ED"/>
<path d="M6.43433 84.995L73.2699 75.2755L6.56402 86.4558L6.43433 84.995Z" fill="#EFBCA3"/>
<path d="M78.1622 79.2312L11.7878 89.0303L78.2919 80.2147L78.1622 79.2312Z" fill="#EFBCA3"/>
<path d="M9.6333 111.261L74.473 101.31L9.6333 113.814V111.261Z" fill="#EFBCA3"/>
<path d="M5.72104 77.2859L2.06079 77.7849L8.06994 124.357H10.8007L9.16513 106.054L12.6092 103.53L8.17801 103.942L5.72104 77.2859Z" fill="#A85A33"/>
<path d="M24.7788 105.584C24.7788 105.584 24.7788 116.656 25.3408 115.889C25.9028 115.123 25.1463 106.285 26.0253 106.343C26.9043 106.401 26.4648 109.634 26.8179 109.583C27.1709 109.532 26.8179 105.41 27.1205 105.794C27.4231 106.177 27.3655 107.413 27.6105 107.442C27.8554 107.471 27.4808 105.201 27.4808 105.201L24.7788 105.584Z" fill="#3BA5ED"/>
<path d="M44.4489 102.778C44.4489 102.778 44.3552 107.898 45.0397 106.394C45.7242 104.89 44.8524 103.819 45.2919 103.704C45.7314 103.588 45.8899 111.326 46.4952 111.275C47.1004 111.225 46.1637 103.436 46.4952 103.704C46.8266 103.971 46.8194 105.266 47.0356 105.193C47.2517 105.121 47.1581 102.431 47.1581 102.431L44.4489 102.778Z" fill="#3BA5ED"/>
<path d="M41.8695 153.617L44.0311 143.442H4.5249L8.84803 167.531C21.6589 167.112 34.1383 163.293 41.8695 153.617Z" fill="#CECECE"/>
<path d="M10.6998 177.902C10.6998 177.902 23.3306 182.508 36.7755 177.902L39.3477 165.608C31.7823 172.839 21.3347 177.077 10.6926 177.8L10.6998 177.902Z" fill="#CECECE"/>
<path d="M8.8479 167.531L10.6924 177.829C21.3201 177.106 31.7821 172.861 39.3476 165.637L41.8694 153.617C34.1382 163.293 21.6588 167.112 8.8479 167.531Z" fill="#E5E5E5"/>
<path d="M44.0022 143.442C44.0022 145.93 35.1687 147.94 24.2672 147.94C13.3657 147.94 4.5249 145.93 4.5249 143.442C4.5249 140.954 13.3657 138.944 24.2672 138.944C35.1687 138.944 44.0022 140.962 44.0022 143.442Z" fill="#B2B2B2"/>
<path d="M40.2699 144.296C40.2699 146.313 33.0647 147.911 24.2672 147.911C15.4696 147.911 8.2644 146.284 8.2644 144.296C8.2644 142.307 15.4264 140.68 24.2672 140.68C33.108 140.68 40.2699 142.285 40.2699 144.296Z" fill="#3BA5ED"/>
<path d="M22.6172 146.385V154.81C22.6191 155.064 22.7209 155.307 22.9004 155.486C23.0799 155.665 23.3226 155.765 23.5755 155.765C23.8284 155.765 24.0711 155.665 24.2506 155.486C24.4301 155.307 24.5319 155.064 24.5338 154.81V150.992C24.5328 150.755 24.5785 150.52 24.6683 150.301C24.758 150.081 24.89 149.882 25.0567 149.714C25.2234 149.546 25.4215 149.413 25.6396 149.322C25.8578 149.231 26.0917 149.184 26.3279 149.184H26.7746C27.2523 149.184 27.7105 149.375 28.0483 149.714C28.3861 150.053 28.5759 150.513 28.5759 150.992V164.573C28.5759 164.649 28.5908 164.724 28.6199 164.794C28.649 164.863 28.6915 164.927 28.7452 164.98C28.7988 165.033 28.8624 165.075 28.9323 165.103C29.0022 165.132 29.077 165.146 29.1523 165.145C29.3033 165.145 29.4481 165.084 29.5548 164.977C29.6616 164.87 29.7215 164.725 29.7215 164.573V151.318C29.7215 151.08 29.7682 150.846 29.8588 150.627C29.9494 150.408 30.0822 150.209 30.2495 150.042C30.4169 149.874 30.6155 149.742 30.834 149.652C31.0525 149.562 31.2866 149.516 31.5228 149.517C31.7587 149.516 31.9924 149.562 32.2105 149.652C32.4286 149.742 32.6268 149.875 32.7936 150.042C32.9604 150.21 33.0925 150.408 33.1823 150.627C33.2721 150.846 33.3179 151.081 33.3169 151.318V157.985C33.3188 158.333 33.4578 158.666 33.7035 158.911C33.9493 159.157 34.2817 159.294 34.6283 159.294C34.8014 159.294 34.9727 159.26 35.1324 159.193C35.292 159.125 35.4368 159.027 35.5582 158.903C35.6796 158.779 35.7752 158.632 35.8394 158.471C35.9037 158.31 35.9353 158.137 35.9324 157.964L35.7595 145.829L22.6172 146.385Z" fill="#3BA5ED"/>
<path d="M212.388 128.863L215.27 161.456C215.27 161.456 226.51 162.852 225.401 159.403C224.291 155.953 217.223 159.027 217.223 159.027L218.952 128.762C218.978 128.287 218.902 127.812 218.728 127.369C218.554 126.927 218.286 126.527 217.944 126.198C217.602 125.869 217.193 125.618 216.745 125.463C216.297 125.307 215.821 125.251 215.349 125.298C214.486 125.378 213.69 125.799 213.136 126.467C212.581 127.135 212.312 127.996 212.388 128.863Z" fill="#002197"/>
<path d="M229.58 125.319L232.462 157.906C232.462 157.906 243.709 159.309 242.592 155.859C241.475 152.41 234.414 155.483 234.414 155.483L236.144 125.218C236.171 124.743 236.095 124.267 235.922 123.823C235.748 123.38 235.481 122.98 235.139 122.65C234.796 122.32 234.387 122.068 233.938 121.912C233.49 121.757 233.013 121.7 232.541 121.747C231.677 121.829 230.882 122.251 230.327 122.921C229.772 123.59 229.503 124.452 229.58 125.319Z" fill="#002197"/>
<path d="M219.435 129.449C219.55 128.776 219.579 128.349 219.579 128.349C219.579 128.349 219.499 128.805 219.435 129.449Z" fill="#8745DD"/>
<path d="M229.335 127.952C229.281 128.272 229.269 128.598 229.299 128.921C229.329 128.599 229.341 128.275 229.335 127.952Z" fill="#8745DD"/>
<path d="M244.53 88.3577C241.742 90.0355 245.647 94.794 243.695 97.0359C242.578 98.1568 240.344 95.3581 238.392 94.5192C237.282 99.5815 238.118 106.271 233.932 109.352C231.986 110.473 228.888 107.392 227.8 104.593C225.847 108.788 225.293 117.466 219.154 115.788C216.639 114.949 215.803 111.868 213.851 109.352C213.577 108.788 212.741 109.908 212.741 110.19C211.663 112.393 209.781 114.093 207.486 114.937C205.192 115.782 202.661 115.706 200.42 114.725C199.541 119.064 199.116 124.003 201.025 126.419C204.794 131.177 206.465 128.096 206.465 128.096C206.465 128.096 203.958 138.734 211.509 138.17C217.432 137.736 219.038 131.936 219.435 129.492C219.5 128.827 219.579 128.393 219.579 128.393C219.579 128.393 219.579 128.82 219.435 129.492C219.204 131.915 219.161 137.447 223.758 136.232C228.232 135.053 229.126 130.859 229.299 128.942C229.269 128.619 229.281 128.293 229.335 127.973C229.341 128.297 229.329 128.62 229.299 128.942C229.378 129.839 229.839 130.982 231.777 130.635C232.611 130.525 233.388 130.155 234.001 129.578C234.614 129 235.031 128.244 235.193 127.417C235.193 127.417 234.422 133.014 237.909 132.732C241.396 132.45 240.834 122.217 240.834 122.217C240.834 122.217 241.043 123.757 242.088 123.475C243.133 123.193 243.342 121.797 243.342 121.797C243.342 121.797 242.859 124.734 244.53 124.734C245.683 124.734 246.008 121.653 246.101 119.758C245.741 119.317 246.101 118.312 246.101 118.312C246.101 118.312 246.101 118.926 246.101 119.758C246.267 119.953 246.584 120.033 247.175 119.838C249.063 119.208 252.06 102.973 249.617 96.6092C249.617 96.6092 250.799 98.287 252.499 96.5369C253.17 95.8137 253.09 92.1183 252.499 87.4755C250.583 89.3702 246.598 87.056 244.53 88.3577Z" fill="url(#paint1_linear_128_402)"/>
<path d="M247.319 67.5737C247.319 67.5737 248.76 68.6295 249.084 66.9011C249.257 65.9682 248.717 61.687 247.391 57.16C246.252 53.291 244.509 49.205 242.203 46.9848C242.203 46.9848 243.968 46.8474 242.578 43.3039C241.302 40.0496 231.82 13.5234 204.974 7.54999C203.965 7.31857 202.927 7.12331 201.868 6.95698C197.769 6.29765 193.568 6.74697 189.699 8.2587C187.953 8.91821 186.345 9.89927 184.958 11.1514C184.958 11.1514 186.766 7.04376 184.396 7.60784C182.025 8.17192 181.888 11.2888 181.888 11.2888C181.888 11.2888 180.173 -1.56928 175.62 0.159115C171.066 1.88751 175.62 14.8975 175.62 14.8975C175.62 14.8975 173.991 11.9107 172.132 13.0823C170.273 14.2538 172.853 16.5318 172.853 16.5318C172.853 16.5318 166.764 13.2197 166.066 15.8738C165.367 18.5278 168.717 23.713 175.36 23.713C175.36 23.713 172.622 26.9745 173.271 33.0709C173.689 37.0701 175.576 42.2914 180.663 48.6192C193.481 64.5725 199.339 72.1225 200.175 81.6395C200.175 81.6395 200.038 83.8741 202.827 83.0352C202.827 83.0352 206.588 92.9717 201.155 102.344C201.155 102.344 199.62 106.264 202.546 106.965C201.661 109.5 200.939 112.09 200.384 114.718C202.624 115.699 205.155 115.775 207.45 114.93C209.745 114.086 211.627 112.385 212.705 110.183C212.705 109.901 213.541 108.78 213.815 109.344C215.767 111.861 216.603 114.942 219.118 115.781C225.249 117.458 225.804 108.78 227.764 104.586C228.881 107.385 231.95 110.465 233.895 109.344C234.617 108.809 235.229 108.139 235.697 107.37C237.858 103.913 237.585 99.1366 238.5 95C240.453 95.8389 242.883 98.5992 244 97.5C245.953 95.2654 242.212 90.185 245 88.5C247.068 87.1983 250.627 89.3947 252.5 87.5C251.693 80.5575 249.617 71.5222 247.319 67.5737Z" fill="url(#paint2_linear_128_402)"/>
<path d="M246.13 118.297C246.13 118.297 245.741 119.317 246.13 119.744C246.137 118.912 246.13 118.297 246.13 118.297Z" fill="#8745DD"/>
<path d="M235.74 42.2841C235.74 42.2841 234.436 32.297 236.763 31.3641C236.763 31.3641 242.988 37.4316 242.707 44.4247C242.707 44.4247 244.257 49.6894 225.689 53.3993C226.266 50.8337 227.496 48.4617 229.257 46.514C231.018 44.5663 233.252 43.1091 235.74 42.2841Z" fill="#001A77"/>
<path d="M203.994 50.9984C203.695 50.3976 203.521 49.7419 203.482 49.0713C203.444 48.4007 203.542 47.7292 203.77 47.0979C203.999 46.4666 204.353 45.8886 204.812 45.3991C205.27 44.9097 205.823 44.5191 206.437 44.2512L206.927 44.0487C211.48 42.2769 218.729 51.3456 218.729 51.3456C218.729 51.3456 225.977 41.2211 236.201 42.3709C236.201 42.3709 236.763 42.4649 236.763 42.841C236.763 43.217 228.211 45.9145 221.337 61.3977C221.337 61.3977 223.052 61.9112 222.447 63.1767C221.841 64.4423 220.357 62.1498 220.357 62.1498C220.357 62.1498 222.122 66.6263 220.263 66.2069C218.404 65.7874 218.729 62.0992 218.729 62.0992C218.729 62.0992 219.197 64.4785 218.123 64.3844C217.05 64.2904 217.569 61.8678 217.569 61.8678C217.569 61.8678 207.986 59.1197 203.994 50.9984Z" fill="#002197"/>
<path d="M219.146 48.8651C218.712 49.2332 218.425 49.7471 218.339 50.3114C218.203 51.1792 218.217 52.3869 219.348 52.4809C221.121 52.6907 223.217 49.6822 223.217 48.8072C223.217 47.9322 221.683 46.6955 219.146 48.8651Z" fill="#001A77"/>
<path d="M217.158 29.2597C217.158 29.2597 214.326 22.6426 219.319 22.7511C224.313 22.8596 221.366 27.2275 221.366 27.2275C221.366 27.2275 224.478 24.1034 226.107 26.6201C227.735 29.1367 222.014 30.0262 222.014 30.0262C222.014 30.0262 226.15 28.522 225.408 27.0829C224.666 25.6438 220.724 28.5293 220.724 28.5293C220.724 28.5293 222.389 23.2356 219.319 23.4092C216.25 23.5827 217.158 29.2597 217.158 29.2597Z" fill="#151825"/>
<path d="M200.6 28.3702L207.805 22.78C208.526 22.2449 207.805 21.0227 207.085 21.5723L199.844 27.1625C199.123 27.7048 199.844 28.9198 200.564 28.3702H200.6Z" fill="#151825"/>
<path d="M213.894 18.6073L218.678 14.9118C219.399 14.3767 218.678 13.1545 217.958 13.7041L213.173 17.3996C212.453 17.942 213.173 19.1569 213.894 18.6073Z" fill="#151825"/>
<path d="M184.67 13.8921C189.406 10.1556 195.398 8.40136 201.393 8.99623C211.329 10.0593 213.699 13.0533 213.699 13.0533C213.699 13.0533 213.8 15.5121 210.32 14.9841C206.84 14.4562 200.42 13.2774 195.816 14.9841C191.212 16.6908 197.913 18.0866 197.913 19.909C197.913 21.7314 190.801 19.8294 189.547 18.6796C188.294 17.5297 185.779 21.0227 191.774 23.4019C197.769 25.7812 185.505 27.8856 182.991 25.6438C180.476 23.4019 175.886 38.9358 182.991 46.3556C182.991 46.3556 172.536 41.1776 176.441 25.6438L177.349 23.4019C177.349 23.4019 167.802 22.9102 168.494 18.6796C169.186 14.449 175.807 19.6993 175.807 19.6993C175.807 19.6993 171.902 14.637 174.063 14.9841C176.225 15.3313 177.551 17.9492 177.551 17.9492C177.551 17.9492 172.939 4.2088 176.643 4.58485C180.346 4.9609 181.73 14.2393 181.73 14.2393C181.73 14.2393 182.386 10.5004 183.963 10.5366C185.541 10.5728 184.67 13.8921 184.67 13.8921Z" fill="#1200A9"/>
<path d="M242.664 42.9061C242.499 41.2861 241.18 37.2363 246.13 37.4027L247.917 47.5272C247.917 47.5272 243.327 49.5521 242.664 42.9061Z" fill="#EDEDED"/>
<path d="M246.13 37.4026L254.61 36.9109L255.511 41.843L253.22 42.6168H255.511L256.332 47.679L247.917 47.5488L246.13 37.4026Z" fill="#595959"/>
<path d="M254.61 36.8819C254.61 36.8819 252.319 37.3303 252.687 37.9522C253.054 38.5742 254.322 39.1455 254.2 39.5143C254.077 39.8831 252.888 39.8831 253.011 40.9607C253.133 42.0382 252.29 42.6023 253.299 43.1808C254.308 43.7594 255.309 43.904 255.187 44.5838C255.064 45.2636 254.409 46.3483 254.654 46.8039C254.899 47.2595 255.374 47.5271 256.332 47.6573C256.7 47.6761 257.063 47.5633 257.356 47.3391C257.81 46.963 257.111 46.2688 256.909 45.6468C256.707 45.0249 256.945 44.6199 257.154 43.7594C257.363 42.8988 257.644 42.1973 256.743 41.4524C255.842 40.7075 255.432 40.3026 255.634 39.724C255.835 39.1455 256.253 38.162 255.886 37.8727C255.518 37.5834 256.21 36.3829 254.61 36.8819Z" fill="#3BA5ED"/>
</g>
<defs>
<linearGradient id="paint0_linear_128_402" x1="116" y1="86.9999" x2="149.5" y2="142" gradientUnits="userSpaceOnUse">
<stop stop-color="#49D3FF"/>
<stop offset="1" stop-color="#002A96"/>
</linearGradient>
<linearGradient id="paint1_linear_128_402" x1="212" y1="83.4999" x2="226.324" y2="138.192" gradientUnits="userSpaceOnUse">
<stop stop-color="#008CC8"/>
<stop offset="1" stop-color="#0008C1"/>
</linearGradient>
<linearGradient id="paint2_linear_128_402" x1="190.5" y1="8.5" x2="239.5" y2="123" gradientUnits="userSpaceOnUse">
<stop stop-color="#000AFF"/>
<stop offset="1" stop-color="#00F0FF"/>
</linearGradient>
<clipPath id="clip0_128_402">
<rect width="260" height="183" fill="white"/>
</clipPath>
</defs>
</svg>
